<?xml version="1.0" encoding="utf-8"?>
<!-- Generator: Adobe Illustrator 16.0.0, SVG Export Plug-In . SVG Version: 6.00 Build 0)  -->
<!DOCTYPE svg PUBLIC "-//W3C//DTD SVG 1.1//EN" "http://www.w3.org/Graphics/SVG/1.1/DTD/svg11.dtd">
<svg version="1.1" id="Layer_1" xmlns="http://www.w3.org/2000/svg" xmlns:xlink="http://www.w3.org/1999/xlink" x="0px" y="0px"
	 width="16px" height="16px" viewBox="0 0 16 16" enable-background="new 0 0 16 16" xml:space="preserve">
<g>
	<path fill="#CFA636" d="M3.588,7.659c0.291,0,0.564-0.055,0.822-0.163c0.259-0.108,0.484-0.259,0.675-0.449
		c0.19-0.19,0.34-0.415,0.449-0.674S5.697,5.841,5.697,5.55c0-0.29-0.054-0.564-0.163-0.823S5.275,4.243,5.085,4.053
		C4.894,3.861,4.669,3.713,4.41,3.604C4.152,3.495,3.879,3.44,3.588,3.44H0.744V3.236h2.844c0.317,0,0.617,0.062,0.898,0.184
		s0.525,0.288,0.736,0.497C5.429,4.125,5.595,4.37,5.717,4.651S5.902,5.232,5.902,5.55S5.84,6.167,5.717,6.447
		C5.595,6.729,5.429,6.975,5.222,7.183C5.011,7.392,4.768,7.558,4.486,7.68C4.205,7.803,3.905,7.863,3.588,7.863V7.659z
		 M0.947,12.764H0.744V3.236h0.204V12.764z M4.254,7.646c0.354,0,0.685,0.068,0.993,0.204c0.309,0.137,0.579,0.321,0.81,0.551
		c0.232,0.231,0.416,0.501,0.553,0.81c0.135,0.309,0.204,0.641,0.204,0.992c0,0.355-0.069,0.689-0.204,1.002
		c-0.137,0.313-0.321,0.584-0.553,0.816c-0.231,0.232-0.5,0.412-0.81,0.543c-0.308,0.133-0.64,0.199-0.993,0.199H0.744v-0.217h3.511
		c0.327,0,0.632-0.063,0.919-0.186c0.286-0.123,0.536-0.291,0.749-0.504c0.213-0.213,0.38-0.459,0.503-0.74
		c0.123-0.283,0.185-0.586,0.185-0.914c0-0.326-0.063-0.629-0.185-0.912C6.302,9.012,6.135,8.764,5.922,8.55
		C5.709,8.338,5.459,8.171,5.173,8.048C4.887,7.925,4.582,7.863,4.254,7.863V7.646z M4.268,7.863H0.744V7.659h3.524V7.863z"/>
</g>
<g>
	<path fill="#CFA636" d="M10.593,3.701v8.598h2.089c0.402,0,0.719-0.029,0.951-0.092c0.23-0.057,0.459-0.205,0.683-0.436
		c0.225-0.232,0.397-0.508,0.521-0.826s0.254-0.764,0.394-1.334h0.325l-0.256,3.041H7.476v-0.354h1.465V3.701H7.476V3.347h4.665
		v0.354H10.593z"/>
</g>
<g>
</g>
<g>
</g>
<g>
</g>
<g>
</g>
<g>
</g>
<g>
</g>
</svg>
