<?xml version="1.0" encoding="utf-8"?>
<!-- Generator: Adobe Illustrator 16.0.0, SVG Export Plug-In . SVG Version: 6.00 Build 0)  -->
<!DOCTYPE svg PUBLIC "-//W3C//DTD SVG 1.1//EN" "http://www.w3.org/Graphics/SVG/1.1/DTD/svg11.dtd">
<svg version="1.1" id="Layer_1" xmlns="http://www.w3.org/2000/svg" xmlns:xlink="http://www.w3.org/1999/xlink" x="0px" y="0px"
	 width="283.46px" height="260.79px" viewBox="0 0 283.46 260.79" enable-background="new 0 0 283.46 260.79" xml:space="preserve">
<g>
	<radialGradient id="SVGID_1_" cx="141.6416" cy="88.7695" r="118.1313" gradientUnits="userSpaceOnUse">
		<stop  offset="0" style="stop-color:#FFF68B"/>
		<stop  offset="1" style="stop-color:#C59B2B"/>
	</radialGradient>
	<polygon fill="none" stroke="url(#SVGID_1_)" stroke-width="2" stroke-miterlimit="10" points="55.029,176.377 177.124,84.078 
		178.049,59.114 178.972,84.125 270.465,153.292 281.95,141.805 176.696,1.587 1.51,141.805 36.082,176.377 	"/>
	<radialGradient id="SVGID_2_" cx="224.3848" cy="123.5732" r="43.0343" gradientUnits="userSpaceOnUse">
		<stop  offset="0" style="stop-color:#FFF68B"/>
		<stop  offset="1" style="stop-color:#C59B2B"/>
	</radialGradient>
	<polygon fill="none" stroke="url(#SVGID_2_)" stroke-width="2" stroke-miterlimit="10" points="179.333,93.913 262.162,161.597 
		269.275,154.479 179.052,86.271 	"/>
	<radialGradient id="SVGID_3_" cx="220.4004" cy="133.7432" r="40.9436" gradientUnits="userSpaceOnUse">
		<stop  offset="0" style="stop-color:#FFF68B"/>
		<stop  offset="1" style="stop-color:#C59B2B"/>
	</radialGradient>
	<polygon fill="none" stroke="url(#SVGID_3_)" stroke-width="2" stroke-miterlimit="10" points="251.621,172.135 260.979,162.779 
		179.415,96.13 179.695,103.701 	"/>
	<radialGradient id="SVGID_4_" cx="206.3828" cy="146.1699" r="29.3049" gradientUnits="userSpaceOnUse">
		<stop  offset="0" style="stop-color:#FFF68B"/>
		<stop  offset="1" style="stop-color:#C59B2B"/>
	</radialGradient>
	<polygon fill="none" stroke="url(#SVGID_4_)" stroke-width="2" stroke-miterlimit="10" points="231.451,176.377 180.216,117.746 
		180.467,124.547 218.608,176.377 	"/>
	<radialGradient id="SVGID_5_" cx="198.9883" cy="150.8359" r="23.3021" gradientUnits="userSpaceOnUse">
		<stop  offset="0" style="stop-color:#FFF68B"/>
		<stop  offset="1" style="stop-color:#C59B2B"/>
	</radialGradient>
	<polygon fill="none" stroke="url(#SVGID_5_)" stroke-width="2" stroke-miterlimit="10" points="216.544,176.377 180.575,127.502 
		182.382,176.377 	"/>
	<radialGradient id="SVGID_6_" cx="215.2852" cy="140.5215" r="36.7234" gradientUnits="userSpaceOnUse">
		<stop  offset="0" style="stop-color:#FFF68B"/>
		<stop  offset="1" style="stop-color:#C59B2B"/>
	</radialGradient>
	<polygon fill="none" stroke="url(#SVGID_6_)" stroke-width="2" stroke-miterlimit="10" points="247.378,176.377 250.443,173.313 
		179.783,106.083 180.116,115.106 233.659,176.377 	"/>
	<radialGradient id="SVGID_7_" cx="157.0762" cy="150.79" r="23.3417" gradientUnits="userSpaceOnUse">
		<stop  offset="0" style="stop-color:#FFF68B"/>
		<stop  offset="1" style="stop-color:#C59B2B"/>
	</radialGradient>
	<polygon fill="none" stroke="url(#SVGID_7_)" stroke-width="2" stroke-miterlimit="10" points="175.522,127.412 139.489,176.377 
		173.714,176.377 	"/>
	<radialGradient id="SVGID_8_" cx="116.4648" cy="130.7656" r="54.6545" gradientUnits="userSpaceOnUse">
		<stop  offset="0" style="stop-color:#FFF68B"/>
		<stop  offset="1" style="stop-color:#C59B2B"/>
	</radialGradient>
	<polygon fill="none" stroke="url(#SVGID_8_)" stroke-width="2" stroke-miterlimit="10" points="177.046,86.222 57.788,176.377 
		75.781,176.377 176.767,93.858 	"/>
	<radialGradient id="SVGID_9_" cx="138.6333" cy="140.4893" r="37.8411" gradientUnits="userSpaceOnUse">
		<stop  offset="0" style="stop-color:#FFF68B"/>
		<stop  offset="1" style="stop-color:#C59B2B"/>
	</radialGradient>
	<polygon fill="none" stroke="url(#SVGID_9_)" stroke-width="2" stroke-miterlimit="10" points="176.314,106.02 102.364,176.377 
		122.371,176.377 175.98,115.03 	"/>
	<radialGradient id="SVGID_10_" cx="126.6836" cy="135.6387" r="46.6426" gradientUnits="userSpaceOnUse">
		<stop  offset="0" style="stop-color:#FFF68B"/>
		<stop  offset="1" style="stop-color:#C59B2B"/>
	</radialGradient>
	<polygon fill="none" stroke="url(#SVGID_10_)" stroke-width="2" stroke-miterlimit="10" points="176.681,96.075 78.409,176.377 
		99.95,176.377 176.401,103.636 	"/>
	<radialGradient id="SVGID_11_" cx="149.6816" cy="146.1328" r="29.3402" gradientUnits="userSpaceOnUse">
		<stop  offset="0" style="stop-color:#FFF68B"/>
		<stop  offset="1" style="stop-color:#C59B2B"/>
	</radialGradient>
	<polygon fill="none" stroke="url(#SVGID_11_)" stroke-width="2" stroke-miterlimit="10" points="175.882,117.671 124.581,176.377 
		137.424,176.377 175.631,124.453 	"/>
</g>
<g>
	<path fill="#CFA636" d="M75.222,234.734v23.5h5.709c1.1,0,1.966-0.082,2.598-0.246s1.255-0.563,1.869-1.195
		c0.613-0.632,1.087-1.384,1.422-2.257c0.335-0.872,0.692-2.086,1.072-3.642h0.891l-0.702,8.308H66.705v-0.968h4.002v-23.5h-4.002
		v-0.967h12.746v0.967H75.222z"/>
	<path fill="#CFA636" d="M112.055,234.734h-4.154v-0.967h9.085v0.967h-4.002v15.383c0,2.226-0.168,3.869-0.503,4.932
		c-0.335,1.062-0.945,1.953-1.83,2.674c-0.885,0.721-1.944,1.246-3.177,1.574c-1.232,0.329-2.507,0.493-3.822,0.493
		c-2.782,0-4.817-0.437-6.107-1.309c-1.29-0.872-2.083-1.947-2.38-3.225c-0.297-1.276-0.445-2.99-0.445-5.14v-15.383h-3.68v-0.967
		h12.158v0.967h-4.002v14.946c0,2.062,0.095,3.68,0.285,4.855c0.189,1.176,0.702,2.156,1.536,2.94s2.156,1.176,3.964,1.176
		c1.467,0,2.782-0.301,3.945-0.901c1.163-0.601,1.976-1.406,2.438-2.418c0.461-1.012,0.692-2.896,0.692-5.652V234.734z"/>
	<path fill="#CFA636" d="M135.783,244.711l9.824,13.523h3.188v0.968h-12.784v-0.968h4.343l-7.302-10.071l-7.966,10.071h4.969v0.968
		h-10.053v-0.968h3.851l8.535-10.887l-9.161-12.613h-3.225v-0.967h12.67v0.967h-4.191l6.638,9.086l7.227-9.086h-4.362v-0.967h9.218
		v0.967h-3.584L135.783,244.711z"/>
	<path fill="#CFA636" d="M173.147,234.734h-4.153v-0.967h9.085v0.967h-4.002v15.383c0,2.226-0.168,3.869-0.503,4.932
		c-0.335,1.062-0.945,1.953-1.83,2.674c-0.886,0.721-1.944,1.246-3.177,1.574c-1.233,0.329-2.507,0.493-3.822,0.493
		c-2.782,0-4.817-0.437-6.107-1.309c-1.289-0.872-2.083-1.947-2.38-3.225c-0.298-1.276-0.446-2.99-0.446-5.14v-15.383h-3.68v-0.967
		h12.158v0.967h-4.002v14.946c0,2.062,0.095,3.68,0.284,4.855c0.19,1.176,0.702,2.156,1.536,2.94
		c0.835,0.784,2.156,1.176,3.965,1.176c1.467,0,2.781-0.301,3.945-0.901c1.163-0.601,1.975-1.406,2.437-2.418
		s0.692-2.896,0.692-5.652V234.734z"/>
	<path fill="#CFA636" d="M185.988,258.234v-23.5h-4.002v-0.967h13.94c1.821,0,3.316,0.158,4.486,0.474
		c1.169,0.316,2.178,0.971,3.025,1.964c0.847,0.992,1.271,2.134,1.271,3.423c0,1.606-0.62,2.909-1.859,3.907
		c-1.239,0.999-3.338,1.752-6.297,2.258v0.095c2.125,0.417,3.866,1.227,5.226,2.428s2.039,3.236,2.039,6.107
		c0,1.644,0.192,2.696,0.578,3.157c0.386,0.462,0.92,0.692,1.604,0.692c0.442,0,0.973-0.088,1.593-0.266v0.93
		c-1.101,0.38-2.162,0.569-3.187,0.569c-2.086,0-3.56-0.582-4.419-1.745c-0.86-1.163-1.277-2.302-1.252-3.414l0.075-3.225
		c0-1.125-0.356-2.234-1.071-3.328s-2.336-1.641-4.865-1.641h-2.37v12.081h4.002v0.968h-12.519v-0.968H185.988z M190.503,234.734
		v10.527h3.414c1.466,0,2.585-0.098,3.356-0.294s1.388-0.708,1.85-1.537c0.461-0.827,0.692-2.146,0.692-3.954
		c0-1.479-0.234-2.561-0.702-3.243s-1.033-1.104-1.697-1.262s-1.533-0.237-2.608-0.237H190.503z"/>
	<path fill="#CFA636" d="M207.175,233.768h12.708v0.967h-4.192l7.454,11.229l7.341-11.229h-4.609v-0.967h9.01v0.967h-3.301
		l-7.966,12.158v11.342h4.229v0.968h-13.05v-0.968h4.306v-10.678l-8.535-12.822h-3.395V233.768z"/>
</g>
<g>
	<g>
		<path fill="#CFA636" stroke="#CFA636" stroke-miterlimit="10" d="M68.755,207.243c1.013,0,1.971-0.19,2.873-0.57
			c0.902-0.38,1.686-0.902,2.351-1.566c0.665-0.665,1.187-1.448,1.567-2.351s0.57-1.859,0.57-2.873c0-1.013-0.19-1.971-0.57-2.872
			c-0.38-0.902-0.902-1.686-1.567-2.351c-0.665-0.665-1.448-1.188-2.351-1.567c-0.902-0.38-1.86-0.569-2.873-0.569h-9.924v-0.712
			h9.924c1.108,0,2.152,0.213,3.134,0.641c0.981,0.428,1.835,1.005,2.564,1.733c0.728,0.729,1.306,1.583,1.733,2.563
			c0.427,0.981,0.641,2.026,0.641,3.134c0,1.108-0.214,2.153-0.641,3.134c-0.427,0.981-1.005,1.837-1.733,2.564
			c-0.729,0.729-1.583,1.306-2.564,1.733c-0.981,0.427-2.026,0.641-3.134,0.641V207.243z M59.544,225.049h-0.712v-33.237h0.712
			V225.049z M71.082,207.195c1.234,0,2.39,0.237,3.466,0.712c1.076,0.476,2.018,1.116,2.825,1.924
			c0.807,0.807,1.448,1.749,1.923,2.825c0.475,1.076,0.712,2.231,0.712,3.466s-0.237,2.397-0.712,3.49
			c-0.475,1.092-1.116,2.042-1.923,2.849c-0.807,0.808-1.75,1.44-2.825,1.899c-1.077,0.459-2.232,0.688-3.466,0.688h-12.25v-0.76
			h12.25c1.14,0,2.208-0.214,3.205-0.641c0.997-0.428,1.867-1.013,2.611-1.757c0.744-0.744,1.33-1.606,1.757-2.588
			c0.428-0.981,0.641-2.042,0.641-3.182s-0.213-2.2-0.641-3.182c-0.427-0.98-1.013-1.844-1.757-2.588
			c-0.744-0.743-1.614-1.329-2.611-1.757c-0.997-0.427-2.065-0.641-3.205-0.641V207.195z M71.129,207.955H58.832v-0.712h12.298
			V207.955z"/>
		<path fill="#CFA636" stroke="#CFA636" stroke-miterlimit="10" d="M82.8,225.049v-33.237h0.712v33.237H82.8z M82.8,192.523v-0.712
			h16.714v0.712H82.8z M82.8,208.763v-0.713h15.242v0.713H82.8z M82.8,225.049v-0.712h16.714v0.712H82.8z"/>
		<path fill="#CFA636" stroke="#CFA636" stroke-miterlimit="10" d="M101.432,225.049v-33.237h0.712v33.237H101.432z
			 M101.432,225.049v-0.712h16.714v0.712H101.432z"/>
		<path fill="#CFA636" stroke="#CFA636" stroke-miterlimit="10" d="M131.307,225.049c-2.089,0-4.06-0.435-5.912-1.306
			c-1.852-0.87-3.466-2.058-4.843-3.562c-1.377-1.503-2.469-3.268-3.276-5.294c-0.807-2.025-1.211-4.179-1.211-6.458
			s0.404-4.432,1.211-6.457s1.899-3.791,3.276-5.295c1.377-1.503,2.991-2.689,4.843-3.561c1.852-0.871,3.823-1.306,5.912-1.306
			c2.342,0,4.574,0.554,6.695,1.661c1.013,0.539,2.001,1.259,2.968,2.161c0.965,0.901,1.812,1.844,2.54,2.825h-0.901
			c-1.394-1.931-3.056-3.411-4.986-4.44c-1.931-1.028-4.036-1.543-6.315-1.543c-1.994,0-3.878,0.42-5.65,1.259
			c-1.773,0.839-3.316,1.979-4.629,3.419c-1.314,1.44-2.351,3.134-3.11,5.08c-0.76,1.947-1.14,4.013-1.14,6.196
			c0,2.185,0.38,4.25,1.14,6.196c0.759,1.947,1.796,3.641,3.11,5.081c1.313,1.44,2.856,2.58,4.629,3.419
			c1.772,0.839,3.656,1.258,5.65,1.258c2.279,0,4.432-0.562,6.458-1.686c2.025-1.123,3.734-2.65,5.128-4.582l0.617,0.285
			c-0.728,0.981-1.575,1.923-2.54,2.825c-0.966,0.902-1.955,1.622-2.968,2.16C135.976,224.495,133.745,225.049,131.307,225.049z
			 M133.396,211.517v-0.713h10.113v0.713H133.396z M142.798,210.804h0.712v14.197h-0.712V210.804z"/>
		<path fill="#CFA636" stroke="#CFA636" stroke-miterlimit="10" d="M147.157,207.955v-0.712h9.924c1.013,0,1.971-0.19,2.873-0.57
			c0.901-0.38,1.686-0.902,2.35-1.566c0.665-0.665,1.188-1.448,1.567-2.351s0.569-1.859,0.569-2.873
			c0-1.013-0.189-1.971-0.569-2.872c-0.38-0.902-0.902-1.686-1.567-2.351c-0.664-0.665-1.448-1.188-2.35-1.567
			c-0.902-0.38-1.86-0.569-2.873-0.569h-9.924v-0.712h9.924c1.107,0,2.152,0.213,3.134,0.641c0.98,0.428,1.836,1.005,2.564,1.733
			c0.728,0.729,1.306,1.583,1.732,2.563c0.428,0.981,0.642,2.026,0.642,3.134c0,1.108-0.214,2.153-0.642,3.134
			c-0.427,0.981-1.005,1.837-1.732,2.564c-0.729,0.729-1.584,1.306-2.564,1.733c-0.981,0.427-2.026,0.641-3.134,0.641H147.157z
			 M147.869,225.049h-0.712v-33.237h0.712V225.049z M165.438,225.049l-9.069-17.236l0.664-0.38l9.117,17.616H165.438z"/>
		<path fill="#CFA636" stroke="#CFA636" stroke-miterlimit="10" d="M194.272,225.049h-0.712l-12.346-32.24l-12.346,32.24h-0.712
			l12.678-33.237h0.76L194.272,225.049z M172.763,214.033v-0.713h16.856v0.713H172.763z"/>
		<path fill="#CFA636" stroke="#CFA636" stroke-miterlimit="10" d="M205.996,192.523h-9.829l-0.095-0.712h9.924V192.523z
			 M196.167,191.812h0.712v33.237h-0.712V191.812z M206.043,225.049h-9.876v-0.712h9.876V225.049z M205.948,224.337
			c1.994,0,3.877-0.42,5.65-1.259c1.772-0.838,3.315-1.978,4.63-3.419c1.313-1.439,2.357-3.125,3.134-5.057
			c0.775-1.931,1.163-3.988,1.163-6.173c0-2.184-0.38-4.241-1.14-6.173c-0.76-1.93-1.804-3.615-3.134-5.057
			c-1.329-1.439-2.881-2.579-4.653-3.419c-1.773-0.838-3.656-1.258-5.65-1.258v-0.712c2.025,0,3.957,0.42,5.793,1.258
			c1.836,0.839,3.45,1.994,4.844,3.466c1.393,1.473,2.508,3.229,3.347,5.271c0.839,2.042,1.259,4.25,1.259,6.624
			c0,2.059-0.349,4.076-1.045,6.055s-1.702,3.751-3.015,5.317c-1.314,1.567-2.913,2.834-4.796,3.799
			c-1.884,0.966-4.013,1.448-6.387,1.448V224.337z"/>
		<path fill="#CFA636" stroke="#CFA636" stroke-miterlimit="10" d="M224.196,225.049v-33.237h0.712v33.237H224.196z
			 M224.196,192.523v-0.712h16.714v0.712H224.196z M224.196,208.763v-0.713h15.242v0.713H224.196z M224.196,225.049v-0.712h16.714
			v0.712H224.196z"/>
	</g>
</g>
<g>
</g>
<g>
</g>
<g>
</g>
<g>
</g>
<g>
</g>
<g>
</g>
</svg>
