<?xml version="1.0" encoding="utf-8"?>
<!-- Generator: Adobe Illustrator 16.0.0, SVG Export Plug-In . SVG Version: 6.00 Build 0)  -->
<!DOCTYPE svg PUBLIC "-//W3C//DTD SVG 1.1//EN" "http://www.w3.org/Graphics/SVG/1.1/DTD/svg11.dtd">
<svg version="1.1" id="Layer_1" xmlns="http://www.w3.org/2000/svg" xmlns:xlink="http://www.w3.org/1999/xlink" x="0px" y="0px"
	 width="1920px" height="2160px" viewBox="0 0 1920 2160" enable-background="new 0 0 1920 2160" xml:space="preserve">
<radialGradient id="SVGID_1_" cx="959.999" cy="1027.8379" r="444.7938" gradientUnits="userSpaceOnUse">
	<stop  offset="0" style="stop-color:#FFF68B"/>
	<stop  offset="1" style="stop-color:#C59B2B"/>
</radialGradient>
<polygon fill="none" stroke="url(#SVGID_1_)" stroke-miterlimit="10" points="1333.832,1360.604 1492.808,1232.629 
	1098.591,695.288 427.192,1232.668 521.465,1360.604 "/>
<radialGradient id="SVGID_2_" cx="358.6914" cy="1381.0264" r="186.4511" gradientUnits="userSpaceOnUse">
	<stop  offset="0" style="stop-color:#FFF68B"/>
	<stop  offset="1" style="stop-color:#C59B2B"/>
</radialGradient>
<polygon fill="none" stroke="url(#SVGID_2_)" stroke-miterlimit="10" points="515.084,1520.302 581.592,1466.764 416.671,1241.968 
	135.792,1466.78 175.231,1520.302 "/>
<radialGradient id="SVGID_3_" cx="267.8135" cy="1138.2568" r="145.3968" gradientUnits="userSpaceOnUse">
	<stop  offset="0" style="stop-color:#FFF68B"/>
	<stop  offset="1" style="stop-color:#C59B2B"/>
</radialGradient>
<polygon fill="none" stroke="url(#SVGID_3_)" stroke-miterlimit="10" points="389.652,1246.783 441.465,1205.074 312.983,1029.946 
	94.164,1205.086 124.889,1246.783 "/>
<radialGradient id="SVGID_4_" cx="158.0605" cy="1348.0605" r="108.265" gradientUnits="userSpaceOnUse">
	<stop  offset="0" style="stop-color:#FFF68B"/>
	<stop  offset="1" style="stop-color:#C59B2B"/>
</radialGradient>
<polygon fill="none" stroke="url(#SVGID_4_)" stroke-miterlimit="10" points="67.475,1267.344 28.953,1298.354 124.477,1428.561 
	287.167,1298.346 264.324,1267.344 "/>
<radialGradient id="SVGID_5_" cx="805.1953" cy="1517.8047" r="192.0388" gradientUnits="userSpaceOnUse">
	<stop  offset="0" style="stop-color:#FFF68B"/>
	<stop  offset="1" style="stop-color:#C59B2B"/>
</radialGradient>
<polygon fill="none" stroke="url(#SVGID_5_)" stroke-miterlimit="10" points="644.099,1374.344 575.592,1429.492 745.471,1661.049 
	1034.797,1429.477 994.173,1374.344 "/>
<radialGradient id="SVGID_6_" cx="582.2998" cy="1395.0469" r="31.7823" gradientUnits="userSpaceOnUse">
	<stop  offset="0" style="stop-color:#FFF68B"/>
	<stop  offset="1" style="stop-color:#C59B2B"/>
</radialGradient>
<polygon fill="none" stroke="url(#SVGID_6_)" stroke-miterlimit="10" points="556.088,1371.613 544.941,1380.586 572.582,1418.263 
	619.658,1380.584 613.047,1371.613 "/>
<radialGradient id="SVGID_7_" cx="583.2998" cy="849.7666" r="444.7942" gradientUnits="userSpaceOnUse">
	<stop  offset="0" style="stop-color:#FFF68B"/>
	<stop  offset="1" style="stop-color:#C59B2B"/>
</radialGradient>
<polygon fill="none" stroke="url(#SVGID_7_)" stroke-miterlimit="10" points="209.467,517 50.491,644.975 444.708,1182.316 
	1116.107,644.936 1021.834,517 "/>
<radialGradient id="SVGID_8_" cx="1339.8105" cy="469.1191" r="208.9587" gradientUnits="userSpaceOnUse">
	<stop  offset="0" style="stop-color:#FFF68B"/>
	<stop  offset="1" style="stop-color:#C59B2B"/>
</radialGradient>
<polygon fill="none" stroke="url(#SVGID_8_)" stroke-miterlimit="10" points="1515.147,625.251 1589.711,565.228 1404.814,313.203 
	1089.912,565.247 1134.128,625.251 "/>
<radialGradient id="SVGID_9_" cx="1183.6963" cy="221.2061" r="174.7704" gradientUnits="userSpaceOnUse">
	<stop  offset="0" style="stop-color:#FFF68B"/>
	<stop  offset="1" style="stop-color:#C59B2B"/>
</radialGradient>
<polygon fill="none" stroke="url(#SVGID_9_)" stroke-miterlimit="10" points="1330.258,351.733 1392.584,301.561 1238.032,90.896 
	974.81,301.575 1011.77,351.733 "/>
<radialGradient id="SVGID_10_" cx="1164.3223" cy="437.4688" r="102.3115" gradientUnits="userSpaceOnUse">
	<stop  offset="0" style="stop-color:#FFF68B"/>
	<stop  offset="1" style="stop-color:#C59B2B"/>
</radialGradient>
<polygon fill="none" stroke="url(#SVGID_10_)" stroke-miterlimit="10" points="1078.746,361.211 1042.355,390.507 1132.596,513.51 
	1286.287,390.498 1264.707,361.211 "/>
<radialGradient id="SVGID_11_" cx="892.4961" cy="390.1855" r="146.3958" gradientUnits="userSpaceOnUse">
	<stop  offset="0" style="stop-color:#FFF68B"/>
	<stop  offset="1" style="stop-color:#C59B2B"/>
</radialGradient>
<polygon fill="none" stroke="url(#SVGID_11_)" stroke-miterlimit="10" points="1015.174,499.46 1067.346,457.463 937.977,281.126 
	717.647,457.477 748.583,499.46 "/>
<radialGradient id="SVGID_12_" cx="1083.9434" cy="540.1592" r="26.807" gradientUnits="userSpaceOnUse">
	<stop  offset="0" style="stop-color:#FFF68B"/>
	<stop  offset="1" style="stop-color:#C59B2B"/>
</radialGradient>
<polygon fill="none" stroke="url(#SVGID_12_)" stroke-miterlimit="10" points="1061.919,520.453 1052.553,527.992 1075.777,559.649 
	1115.333,527.99 1109.779,520.453 "/>
<radialGradient id="SVGID_13_" cx="1069.1064" cy="484.9429" r="37.7798" gradientUnits="userSpaceOnUse">
	<stop  offset="0" style="stop-color:#FFF68B"/>
	<stop  offset="1" style="stop-color:#C59B2B"/>
</radialGradient>
<polygon fill="none" stroke="url(#SVGID_13_)" stroke-miterlimit="10" points="1100.366,512.867 1113.66,502.167 1080.696,457.234 
	1024.554,502.169 1032.437,512.867 "/>
<radialGradient id="SVGID_14_" cx="170.3325" cy="963.6191" r="107.7745" gradientUnits="userSpaceOnUse">
	<stop  offset="0" style="stop-color:#FFF68B"/>
	<stop  offset="1" style="stop-color:#C59B2B"/>
</radialGradient>
<polygon fill="none" stroke="url(#SVGID_14_)" stroke-miterlimit="10" points="260.505,1043.968 298.853,1013.099 203.763,883.486 
	41.814,1013.108 64.554,1043.968 "/>
<radialGradient id="SVGID_15_" cx="487.042" cy="361.1855" r="186.4509" gradientUnits="userSpaceOnUse">
	<stop  offset="0" style="stop-color:#FFF68B"/>
	<stop  offset="1" style="stop-color:#C59B2B"/>
</radialGradient>
<polygon fill="none" stroke="url(#SVGID_15_)" stroke-miterlimit="10" points="643.435,500.46 709.942,446.922 545.022,222.126 
	264.143,446.939 303.582,500.46 "/>
<radialGradient id="SVGID_16_" cx="700.9414" cy="479.7539" r="26.8072" gradientUnits="userSpaceOnUse">
	<stop  offset="0" style="stop-color:#FFF68B"/>
	<stop  offset="1" style="stop-color:#C59B2B"/>
</radialGradient>
<polygon fill="none" stroke="url(#SVGID_16_)" stroke-miterlimit="10" points="722.966,499.46 732.333,491.921 709.108,460.264 
	669.552,491.923 675.106,499.46 "/>
<radialGradient id="SVGID_17_" cx="768.5977" cy="170.0752" r="160.5045" gradientUnits="userSpaceOnUse">
	<stop  offset="0" style="stop-color:#FFF68B"/>
	<stop  offset="1" style="stop-color:#C59B2B"/>
</radialGradient>
<polygon fill="none" stroke="url(#SVGID_17_)" stroke-miterlimit="10" points="903.152,289.917 960.372,243.854 818.483,50.449 
	576.825,243.869 610.756,289.917 "/>
<radialGradient id="SVGID_18_" cx="750.4302" cy="367.3525" r="91.9251" gradientUnits="userSpaceOnUse">
	<stop  offset="0" style="stop-color:#FFF68B"/>
	<stop  offset="1" style="stop-color:#C59B2B"/>
</radialGradient>
<polygon fill="none" stroke="url(#SVGID_18_)" stroke-miterlimit="10" points="673.597,298.874 640.923,325.177 721.945,435.615 
	859.936,325.169 840.56,298.874 "/>
<radialGradient id="SVGID_19_" cx="1459.1875" cy="841.9258" r="267.1421" gradientUnits="userSpaceOnUse">
	<stop  offset="0" style="stop-color:#FFF68B"/>
	<stop  offset="1" style="stop-color:#C59B2B"/>
</radialGradient>
<polygon fill="none" stroke="url(#SVGID_19_)" stroke-miterlimit="10" points="1234.881,642.216 1139.491,719.003 1376.029,1041.42 
	1778.884,718.979 1722.318,642.216 "/>
<radialGradient id="SVGID_20_" cx="1160.6035" cy="668.8594" r="36.0691" gradientUnits="userSpaceOnUse">
	<stop  offset="0" style="stop-color:#FFF68B"/>
	<stop  offset="1" style="stop-color:#C59B2B"/>
</radialGradient>
<polygon fill="none" stroke="url(#SVGID_20_)" stroke-miterlimit="10" points="1130.782,642.216 1118.102,652.423 1149.548,695.288 
	1203.104,652.421 1195.586,642.216 "/>
<radialGradient id="SVGID_21_" cx="507.1875" cy="1682.4414" r="267.1422" gradientUnits="userSpaceOnUse">
	<stop  offset="0" style="stop-color:#FFF68B"/>
	<stop  offset="1" style="stop-color:#C59B2B"/>
</radialGradient>
<polygon fill="none" stroke="url(#SVGID_21_)" stroke-miterlimit="10" points="731.495,1882.152 826.885,1805.365 590.347,1482.948 
	187.492,1805.389 244.058,1882.152 "/>
<radialGradient id="SVGID_22_" cx="1042.3467" cy="144.292" r="162.2343" gradientUnits="userSpaceOnUse">
	<stop  offset="0" style="stop-color:#FFF68B"/>
	<stop  offset="1" style="stop-color:#C59B2B"/>
</radialGradient>
<polygon fill="none" stroke="url(#SVGID_22_)" stroke-miterlimit="10" points="906.337,23.154 848.496,69.715 991.923,265.213 
	1236.195,69.7 1201.896,23.154 "/>
<radialGradient id="SVGID_23_" cx="1575.3574" cy="205.71" r="267.1415" gradientUnits="userSpaceOnUse">
	<stop  offset="0" style="stop-color:#FFF68B"/>
	<stop  offset="1" style="stop-color:#C59B2B"/>
</radialGradient>
<polygon fill="none" stroke="url(#SVGID_23_)" stroke-miterlimit="10" points="1351.05,6 1255.66,82.787 1492.198,405.204 
	1895.053,82.764 1838.487,6 "/>
<radialGradient id="SVGID_24_" cx="1713.5801" cy="336.9961" r="173.5466" gradientUnits="userSpaceOnUse">
	<stop  offset="0" style="stop-color:#FFF68B"/>
	<stop  offset="1" style="stop-color:#C59B2B"/>
</radialGradient>
<polygon fill="none" stroke="url(#SVGID_24_)" stroke-miterlimit="10" points="1859.111,466.606 1921,416.787 1767.534,207.602 
	1506.162,416.802 1542.861,466.606 "/>
<radialGradient id="SVGID_25_" cx="1844.9424" cy="228.375" r="55.7067" gradientUnits="userSpaceOnUse">
	<stop  offset="0" style="stop-color:#FFF68B"/>
	<stop  offset="1" style="stop-color:#C59B2B"/>
</radialGradient>
<polygon fill="none" stroke="url(#SVGID_25_)" stroke-miterlimit="10" points="1798.594,187.023 1778.884,202.89 1827.759,269.511 
	1911,202.885 1899.312,187.023 "/>
<radialGradient id="SVGID_26_" cx="1864.8838" cy="143.0815" r="44.4486" gradientUnits="userSpaceOnUse">
	<stop  offset="0" style="stop-color:#FFF68B"/>
	<stop  offset="1" style="stop-color:#C59B2B"/>
</radialGradient>
<polygon fill="none" stroke="url(#SVGID_26_)" stroke-miterlimit="10" points="1901.757,176 1917.438,163.379 1878.555,110.378 
	1812.331,163.381 1821.63,176 "/>
<radialGradient id="SVGID_27_" cx="1613.0957" cy="991.8569" r="145.3964" gradientUnits="userSpaceOnUse">
	<stop  offset="0" style="stop-color:#FFF68B"/>
	<stop  offset="1" style="stop-color:#C59B2B"/>
</radialGradient>
<polygon fill="none" stroke="url(#SVGID_27_)" stroke-miterlimit="10" points="1734.934,1100.384 1786.746,1058.675 
	1658.265,883.546 1439.445,1058.687 1470.17,1100.384 "/>
<radialGradient id="SVGID_28_" cx="1009.9277" cy="1583.2617" r="208.9583" gradientUnits="userSpaceOnUse">
	<stop  offset="0" style="stop-color:#FFF68B"/>
	<stop  offset="1" style="stop-color:#C59B2B"/>
</radialGradient>
<polygon fill="none" stroke="url(#SVGID_28_)" stroke-miterlimit="10" points="1185.264,1739.395 1259.827,1679.371 
	1074.931,1427.346 760.028,1679.39 804.244,1739.395 "/>
<radialGradient id="SVGID_29_" cx="156.4336" cy="1625.8359" r="121.0282" gradientUnits="userSpaceOnUse">
	<stop  offset="0" style="stop-color:#FFF68B"/>
	<stop  offset="1" style="stop-color:#C59B2B"/>
</radialGradient>
<polygon fill="none" stroke="url(#SVGID_29_)" stroke-miterlimit="10" points="257.762,1716.111 300.853,1681.424 194,1535.777 
	12.017,1681.435 37.569,1716.111 "/>
<radialGradient id="SVGID_30_" cx="350.6704" cy="1605.2227" r="98.2434" gradientUnits="userSpaceOnUse">
	<stop  offset="0" style="stop-color:#FFF68B"/>
	<stop  offset="1" style="stop-color:#C59B2B"/>
</radialGradient>
<polygon fill="none" stroke="url(#SVGID_30_)" stroke-miterlimit="10" points="268.52,1532.012 233.584,1560.135 320.214,1678.217 
	467.755,1560.127 447.039,1532.012 "/>
<radialGradient id="SVGID_31_" cx="265.1523" cy="320.3359" r="218.3385" gradientUnits="userSpaceOnUse">
	<stop  offset="0" style="stop-color:#FFF68B"/>
	<stop  offset="1" style="stop-color:#C59B2B"/>
</radialGradient>
<polygon fill="none" stroke="url(#SVGID_31_)" stroke-miterlimit="10" points="81.921,157.178 4,219.904 197.222,483.278 
	526.304,219.884 480.097,157.178 "/>
<radialGradient id="SVGID_32_" cx="1688.791" cy="556.1196" r="102.3115" gradientUnits="userSpaceOnUse">
	<stop  offset="0" style="stop-color:#FFF68B"/>
	<stop  offset="1" style="stop-color:#C59B2B"/>
</radialGradient>
<polygon fill="none" stroke="url(#SVGID_32_)" stroke-miterlimit="10" points="1603.215,479.862 1566.824,509.158 1657.064,632.161 
	1810.756,509.149 1789.176,479.862 "/>
<radialGradient id="SVGID_33_" cx="1588.7109" cy="602.2368" r="37.7792" gradientUnits="userSpaceOnUse">
	<stop  offset="0" style="stop-color:#FFF68B"/>
	<stop  offset="1" style="stop-color:#C59B2B"/>
</radialGradient>
<polygon fill="none" stroke="url(#SVGID_33_)" stroke-miterlimit="10" points="1619.971,630.161 1633.264,619.461 1600.301,574.528 
	1544.158,619.463 1552.041,630.161 "/>
<radialGradient id="SVGID_34_" cx="1263.6602" cy="39.9189" r="44.4486" gradientUnits="userSpaceOnUse">
	<stop  offset="0" style="stop-color:#FFF68B"/>
	<stop  offset="1" style="stop-color:#C59B2B"/>
</radialGradient>
<polygon fill="none" stroke="url(#SVGID_34_)" stroke-miterlimit="10" points="1226.787,7 1211.106,19.622 1249.989,72.622 
	1316.213,19.619 1306.914,7 "/>
<radialGradient id="SVGID_35_" cx="614.9941" cy="121.5635" r="139.4336" gradientUnits="userSpaceOnUse">
	<stop  offset="0" style="stop-color:#FFF68B"/>
	<stop  offset="1" style="stop-color:#C59B2B"/>
</radialGradient>
<polygon fill="none" stroke="url(#SVGID_35_)" stroke-miterlimit="10" points="498.176,17.503 448.496,57.494 571.686,225.408 
	781.491,57.481 752.032,17.503 "/>
<radialGradient id="SVGID_36_" cx="106.1479" cy="1128.6807" r="86.6246" gradientUnits="userSpaceOnUse">
	<stop  offset="0" style="stop-color:#FFF68B"/>
	<stop  offset="1" style="stop-color:#C59B2B"/>
</radialGradient>
<polygon fill="none" stroke="url(#SVGID_36_)" stroke-miterlimit="10" points="33.776,1064.172 3,1088.947 79.317,1192.973 
	209.294,1088.94 191.044,1064.172 "/>
<radialGradient id="SVGID_37_" cx="1427.0684" cy="1571.3242" r="267.1421" gradientUnits="userSpaceOnUse">
	<stop  offset="0" style="stop-color:#FFF68B"/>
	<stop  offset="1" style="stop-color:#C59B2B"/>
</radialGradient>
<polygon fill="none" stroke="url(#SVGID_37_)" stroke-miterlimit="10" points="1202.762,1371.613 1107.372,1448.4 1343.91,1770.817 
	1746.765,1448.377 1690.199,1371.613 "/>
<radialGradient id="SVGID_38_" cx="1114.2441" cy="1405.1426" r="45.0057" gradientUnits="userSpaceOnUse">
	<stop  offset="0" style="stop-color:#FFF68B"/>
	<stop  offset="1" style="stop-color:#C59B2B"/>
</radialGradient>
<polygon fill="none" stroke="url(#SVGID_38_)" stroke-miterlimit="10" points="1076.904,1371.806 1061.023,1384.588 
	1100.4,1438.263 1167.465,1384.585 1158.049,1371.806 "/>
<radialGradient id="SVGID_39_" cx="1628.7109" cy="1246.6758" r="145.3966" gradientUnits="userSpaceOnUse">
	<stop  offset="0" style="stop-color:#FFF68B"/>
	<stop  offset="1" style="stop-color:#C59B2B"/>
</radialGradient>
<polygon fill="none" stroke="url(#SVGID_39_)" stroke-miterlimit="10" points="1750.549,1355.203 1802.361,1313.494 
	1673.88,1138.365 1455.061,1313.506 1485.785,1355.203 "/>
<radialGradient id="SVGID_40_" cx="1524.248" cy="1166.1084" r="70.1337" gradientUnits="userSpaceOnUse">
	<stop  offset="0" style="stop-color:#FFF68B"/>
	<stop  offset="1" style="stop-color:#C59B2B"/>
</radialGradient>
<polygon fill="none" stroke="url(#SVGID_40_)" stroke-miterlimit="10" points="1465.755,1113.951 1440.882,1133.975 
	1502.563,1218.049 1607.612,1133.969 1592.862,1113.951 "/>
<radialGradient id="SVGID_41_" cx="76.7012" cy="903.6543" r="64.5782" gradientUnits="userSpaceOnUse">
	<stop  offset="0" style="stop-color:#FFF68B"/>
	<stop  offset="1" style="stop-color:#C59B2B"/>
</radialGradient>
<polygon fill="none" stroke="url(#SVGID_41_)" stroke-miterlimit="10" points="22.885,855.658 0,874.081 56.749,951.434 
	153.401,874.076 139.83,855.658 "/>
<radialGradient id="SVGID_42_" cx="1817.5459" cy="572.1973" r="87.3063" gradientUnits="userSpaceOnUse">
	<stop  offset="0" style="stop-color:#FFF68B"/>
	<stop  offset="1" style="stop-color:#C59B2B"/>
</radialGradient>
<polygon fill="none" stroke="url(#SVGID_42_)" stroke-miterlimit="10" points="1890.492,637.216 1921.512,612.244 1844.59,507.394 
	1713.581,612.252 1731.977,637.216 "/>
<radialGradient id="SVGID_43_" cx="1875.3193" cy="300.0342" r="32.9603" gradientUnits="userSpaceOnUse">
	<stop  offset="0" style="stop-color:#FFF68B"/>
	<stop  offset="1" style="stop-color:#C59B2B"/>
</radialGradient>
<polygon fill="none" stroke="url(#SVGID_43_)" stroke-miterlimit="10" points="1848.115,275.719 1836.547,285.031 1865.233,324.133 
	1914.091,285.029 1907.23,275.719 "/>
<radialGradient id="SVGID_44_" cx="1885.2578" cy="246.6147" r="30.4344" gradientUnits="userSpaceOnUse">
	<stop  offset="0" style="stop-color:#FFF68B"/>
	<stop  offset="1" style="stop-color:#C59B2B"/>
</radialGradient>
<polygon fill="none" stroke="url(#SVGID_44_)" stroke-miterlimit="10" points="1910.335,269.038 1921,260.454 1894.555,224.408 
	1849.516,260.455 1855.84,269.038 "/>
<radialGradient id="SVGID_45_" cx="1084.8916" cy="1945.5537" r="233.7972" gradientUnits="userSpaceOnUse">
	<stop  offset="0" style="stop-color:#FFF68B"/>
	<stop  offset="1" style="stop-color:#C59B2B"/>
</radialGradient>
<polygon fill="none" stroke="url(#SVGID_45_)" stroke-miterlimit="10" points="888.649,1770.817 805.194,1837.997 
	1012.137,2120.073 1364.587,1837.977 1315.099,1770.817 "/>
<radialGradient id="SVGID_46_" cx="1253.748" cy="1722.2949" r="46.1816" gradientUnits="userSpaceOnUse">
	<stop  offset="0" style="stop-color:#FFF68B"/>
	<stop  offset="1" style="stop-color:#C59B2B"/>
</radialGradient>
<polygon fill="none" stroke="url(#SVGID_46_)" stroke-miterlimit="10" points="1292.079,1756.512 1308.381,1743.392 
	1267.959,1688.295 1199.117,1743.394 1208.783,1756.512 "/>
<radialGradient id="SVGID_47_" cx="737.0986" cy="1990.5342" r="186.4514" gradientUnits="userSpaceOnUse">
	<stop  offset="0" style="stop-color:#FFF68B"/>
	<stop  offset="1" style="stop-color:#C59B2B"/>
</radialGradient>
<polygon fill="none" stroke="url(#SVGID_47_)" stroke-miterlimit="10" points="893.492,2129.81 960,2076.271 795.079,1851.476 
	514.2,2076.288 553.639,2129.81 "/>
<radialGradient id="SVGID_48_" cx="459.2217" cy="2014.0703" r="166.251" gradientUnits="userSpaceOnUse">
	<stop  offset="0" style="stop-color:#FFF68B"/>
	<stop  offset="1" style="stop-color:#C59B2B"/>
</radialGradient>
<polygon fill="none" stroke="url(#SVGID_48_)" stroke-miterlimit="10" points="319.832,1889.925 260.554,1937.643 407.544,2138 
	657.888,1937.628 622.737,1889.925 "/>
<radialGradient id="SVGID_49_" cx="680.2656" cy="1913.3574" r="31.7826" gradientUnits="userSpaceOnUse">
	<stop  offset="0" style="stop-color:#FFF68B"/>
	<stop  offset="1" style="stop-color:#C59B2B"/>
</radialGradient>
<polygon fill="none" stroke="url(#SVGID_49_)" stroke-miterlimit="10" points="654.054,1889.925 642.907,1898.897 670.547,1936.574 
	717.624,1898.896 711.013,1889.925 "/>
<radialGradient id="SVGID_50_" cx="481.8232" cy="2112.9648" r="46.181" gradientUnits="userSpaceOnUse">
	<stop  offset="0" style="stop-color:#FFF68B"/>
	<stop  offset="1" style="stop-color:#C59B2B"/>
</radialGradient>
<polygon fill="none" stroke="url(#SVGID_50_)" stroke-miterlimit="10" points="520.154,2147.182 536.456,2134.062 496.034,2078.965 
	427.192,2134.063 436.858,2147.182 "/>
<radialGradient id="SVGID_51_" cx="955.4331" cy="2114.9648" r="38.1702" gradientUnits="userSpaceOnUse">
	<stop  offset="0" style="stop-color:#FFF68B"/>
	<stop  offset="1" style="stop-color:#C59B2B"/>
</radialGradient>
<polygon fill="none" stroke="url(#SVGID_51_)" stroke-miterlimit="10" points="987.021,2143.182 1000.455,2132.369 
	967.144,2086.965 910.412,2132.371 918.378,2143.182 "/>
<radialGradient id="SVGID_52_" cx="1492.7617" cy="1912.9453" r="310.3902" gradientUnits="userSpaceOnUse">
	<stop  offset="0" style="stop-color:#FFF68B"/>
	<stop  offset="1" style="stop-color:#C59B2B"/>
</radialGradient>
<polygon fill="none" stroke="url(#SVGID_52_)" stroke-miterlimit="10" points="1753.471,2145.048 1864.339,2055.799 
	1589.417,1681.061 1121.186,2055.826 1186.932,2145.048 "/>
<radialGradient id="SVGID_53_" cx="1759.1709" cy="1736.5117" r="123.7604" gradientUnits="userSpaceOnUse">
	<stop  offset="0" style="stop-color:#FFF68B"/>
	<stop  offset="1" style="stop-color:#C59B2B"/>
</radialGradient>
<polygon fill="none" stroke="url(#SVGID_53_)" stroke-miterlimit="10" points="1655.544,1644.189 1611.475,1679.664 
	1720.753,1828.616 1906.866,1679.653 1880.734,1644.189 "/>
<radialGradient id="SVGID_54_" cx="223.3701" cy="2056.9063" r="121.0279" gradientUnits="userSpaceOnUse">
	<stop  offset="0" style="stop-color:#FFF68B"/>
	<stop  offset="1" style="stop-color:#C59B2B"/>
</radialGradient>
<polygon fill="none" stroke="url(#SVGID_54_)" stroke-miterlimit="10" points="324.698,2147.182 367.789,2112.494 260.936,1966.848 
	78.953,2112.505 104.505,2147.182 "/>
<radialGradient id="SVGID_55_" cx="125.3467" cy="1974.0703" r="105.1298" gradientUnits="userSpaceOnUse">
	<stop  offset="0" style="stop-color:#FFF68B"/>
	<stop  offset="1" style="stop-color:#C59B2B"/>
</radialGradient>
<polygon fill="none" stroke="url(#SVGID_55_)" stroke-miterlimit="10" points="37.401,1895.702 0,1925.81 92.741,2052.222 
	250.692,1925.8 228.513,1895.702 "/>
<radialGradient id="SVGID_56_" cx="1786.748" cy="903.6538" r="102.3115" gradientUnits="userSpaceOnUse">
	<stop  offset="0" style="stop-color:#FFF68B"/>
	<stop  offset="1" style="stop-color:#C59B2B"/>
</radialGradient>
<polygon fill="none" stroke="url(#SVGID_56_)" stroke-miterlimit="10" points="1701.172,827.396 1664.781,856.692 1755.021,979.695 
	1908.713,856.683 1887.133,827.396 "/>
<radialGradient id="SVGID_57_" cx="1811.9082" cy="1190.1924" r="80.7373" gradientUnits="userSpaceOnUse">
	<stop  offset="0" style="stop-color:#FFF68B"/>
	<stop  offset="1" style="stop-color:#C59B2B"/>
</radialGradient>
<polygon fill="none" stroke="url(#SVGID_57_)" stroke-miterlimit="10" points="1744.491,1130.093 1715.822,1153.172 
	1786.913,1250.075 1907.992,1153.166 1890.992,1130.093 "/>
<radialGradient id="SVGID_58_" cx="351.6489" cy="72.4521" r="67.8362" gradientUnits="userSpaceOnUse">
	<stop  offset="0" style="stop-color:#FFF68B"/>
	<stop  offset="1" style="stop-color:#C59B2B"/>
</radialGradient>
<polygon fill="none" stroke="url(#SVGID_58_)" stroke-miterlimit="10" points="408.208,122.888 432.259,103.526 372.618,22.231 
	271.041,103.532 285.303,122.888 "/>
<radialGradient id="SVGID_59_" cx="210.5127" cy="82.9814" r="91.9251" gradientUnits="userSpaceOnUse">
	<stop  offset="0" style="stop-color:#FFF68B"/>
	<stop  offset="1" style="stop-color:#C59B2B"/>
</radialGradient>
<polygon fill="none" stroke="url(#SVGID_59_)" stroke-miterlimit="10" points="133.679,14.503 101.006,40.806 182.028,151.244 
	320.018,40.798 300.643,14.503 "/>
<radialGradient id="SVGID_60_" cx="76.7002" cy="110.2705" r="49.6335" gradientUnits="userSpaceOnUse">
	<stop  offset="0" style="stop-color:#FFF68B"/>
	<stop  offset="1" style="stop-color:#C59B2B"/>
</radialGradient>
<polygon fill="none" stroke="url(#SVGID_60_)" stroke-miterlimit="10" points="117.938,147.074 135.474,132.957 91.989,73.684 
	17.928,132.961 28.327,147.074 "/>
<radialGradient id="SVGID_61_" cx="101.0049" cy="457.126" r="67.8364" gradientUnits="userSpaceOnUse">
	<stop  offset="0" style="stop-color:#FFF68B"/>
	<stop  offset="1" style="stop-color:#C59B2B"/>
</radialGradient>
<polygon fill="none" stroke="url(#SVGID_61_)" stroke-miterlimit="10" points="157.563,507.563 181.615,488.201 121.974,406.906 
	20.396,488.207 34.659,507.563 "/>
<radialGradient id="SVGID_62_" cx="76.7012" cy="568.4482" r="64.5783" gradientUnits="userSpaceOnUse">
	<stop  offset="0" style="stop-color:#FFF68B"/>
	<stop  offset="1" style="stop-color:#C59B2B"/>
</radialGradient>
<polygon fill="none" stroke="url(#SVGID_62_)" stroke-miterlimit="10" points="22.885,520.453 0,538.875 56.749,616.229 
	153.401,538.87 139.83,520.453 "/>
<radialGradient id="SVGID_63_" cx="59.3145" cy="412.874" r="45.822" gradientUnits="userSpaceOnUse">
	<stop  offset="0" style="stop-color:#FFF68B"/>
	<stop  offset="1" style="stop-color:#C59B2B"/>
</radialGradient>
<polygon fill="none" stroke="url(#SVGID_63_)" stroke-miterlimit="10" points="21.285,378.926 5.113,391.944 45.215,446.606 
	113.515,391.94 103.924,378.926 "/>
<radialGradient id="SVGID_64_" cx="82.2002" cy="794.9033" r="63.1345" gradientUnits="userSpaceOnUse">
	<stop  offset="0" style="stop-color:#FFF68B"/>
	<stop  offset="1" style="stop-color:#C59B2B"/>
</radialGradient>
<polygon fill="none" stroke="url(#SVGID_64_)" stroke-miterlimit="10" points="134.801,841.818 157.17,823.811 101.701,748.204 
	7.231,823.817 20.497,841.818 "/>
<radialGradient id="SVGID_65_" cx="1752.4316" cy="1538.1934" r="121.3641" gradientUnits="userSpaceOnUse">
	<stop  offset="0" style="stop-color:#FFF68B"/>
	<stop  offset="1" style="stop-color:#C59B2B"/>
</radialGradient>
<polygon fill="none" stroke="url(#SVGID_65_)" stroke-miterlimit="10" points="1854.043,1628.721 1897.253,1593.937 
	1790.103,1447.883 1607.612,1593.946 1633.236,1628.721 "/>
<g>
</g>
<g>
</g>
<g>
</g>
<g>
</g>
<g>
</g>
<g>
</g>
</svg>
