<?xml version="1.0" encoding="utf-8"?>
<!-- Generator: Adobe Illustrator 16.0.0, SVG Export Plug-In . SVG Version: 6.00 Build 0)  -->
<!DOCTYPE svg PUBLIC "-//W3C//DTD SVG 1.1//EN" "http://www.w3.org/Graphics/SVG/1.1/DTD/svg11.dtd">
<svg version="1.1" id="Layer_1" xmlns="http://www.w3.org/2000/svg" xmlns:xlink="http://www.w3.org/1999/xlink" x="0px" y="0px"
	 width="283.46px" height="283.46px" viewBox="0 0 283.46 283.46" enable-background="new 0 0 283.46 283.46" xml:space="preserve">
<g>
	<defs>
		<rect id="SVGID_1_" x="54.683" y="98.772" width="174.093" height="108.924"/>
	</defs>
	<use xlink:href="#SVGID_1_"  overflow="visible"/>
	<clipPath id="SVGID_2_">
		<use xlink:href="#SVGID_1_"  overflow="visible"/>
	</clipPath>
	
		<line clip-path="url(#SVGID_2_)" stroke="#CFA636" stroke-width="0.4874" stroke-miterlimit="10" x1="139.83" y1="98.772" x2="223.542" y2="210.205"/>
	
		<line opacity="0.9" clip-path="url(#SVGID_2_)" stroke="#CFA636" stroke-width="0.4874" stroke-miterlimit="10" x1="144.064" y1="98.772" x2="227.776" y2="210.205"/>
	
		<line opacity="0.8" clip-path="url(#SVGID_2_)" stroke="#CFA636" stroke-width="0.4874" stroke-miterlimit="10" x1="148.299" y1="98.772" x2="232.011" y2="210.205"/>
	
		<line opacity="0.7" clip-path="url(#SVGID_2_)" stroke="#CFA636" stroke-width="0.4874" stroke-miterlimit="10" x1="152.533" y1="98.772" x2="236.245" y2="210.205"/>
	
		<line opacity="0.6" clip-path="url(#SVGID_2_)" stroke="#CFA636" stroke-width="0.4874" stroke-miterlimit="10" x1="156.768" y1="98.772" x2="240.479" y2="210.205"/>
	
		<line opacity="0.5" clip-path="url(#SVGID_2_)" stroke="#CFA636" stroke-width="0.4874" stroke-miterlimit="10" x1="161.003" y1="98.772" x2="244.716" y2="210.205"/>
	
		<line opacity="0.4" clip-path="url(#SVGID_2_)" stroke="#CFA636" stroke-width="0.4874" stroke-miterlimit="10" x1="165.237" y1="98.772" x2="248.95" y2="210.205"/>
	
		<line opacity="0.3" clip-path="url(#SVGID_2_)" stroke="#CFA636" stroke-width="0.4874" stroke-miterlimit="10" x1="169.472" y1="98.772" x2="253.185" y2="210.205"/>
	
		<line opacity="0.2" clip-path="url(#SVGID_2_)" stroke="#CFA636" stroke-width="0.4874" stroke-miterlimit="10" x1="173.706" y1="98.772" x2="257.419" y2="210.205"/>
	
		<line opacity="0.9" clip-path="url(#SVGID_2_)" stroke="#CFA636" stroke-width="0.4874" stroke-miterlimit="10" x1="133.242" y1="217.322" x2="232.823" y2="119.812"/>
	
		<line opacity="0.8" clip-path="url(#SVGID_2_)" stroke="#CFA636" stroke-width="0.4874" stroke-miterlimit="10" x1="137.428" y1="217.962" x2="237.009" y2="120.451"/>
	
		<line opacity="0.7" clip-path="url(#SVGID_2_)" stroke="#CFA636" stroke-width="0.4874" stroke-miterlimit="10" x1="141.614" y1="218.601" x2="241.194" y2="121.091"/>
	
		<line opacity="0.6" clip-path="url(#SVGID_2_)" stroke="#CFA636" stroke-width="0.4874" stroke-miterlimit="10" x1="145.799" y1="219.241" x2="245.382" y2="121.73"/>
	
		<line opacity="0.5" clip-path="url(#SVGID_2_)" stroke="#CFA636" stroke-width="0.4874" stroke-miterlimit="10" x1="149.985" y1="219.881" x2="249.567" y2="122.37"/>
	
		<line opacity="0.4" clip-path="url(#SVGID_2_)" stroke="#CFA636" stroke-width="0.4874" stroke-miterlimit="10" x1="154.172" y1="220.521" x2="253.753" y2="123.009"/>
	
		<line opacity="0.3" clip-path="url(#SVGID_2_)" stroke="#CFA636" stroke-width="0.4874" stroke-miterlimit="10" x1="158.357" y1="221.16" x2="257.94" y2="123.649"/>
	
		<line opacity="0.2" clip-path="url(#SVGID_2_)" stroke="#CFA636" stroke-width="0.4874" stroke-miterlimit="10" x1="162.543" y1="221.799" x2="262.126" y2="124.289"/>
</g>
<g>
	<g>
		<radialGradient id="SVGID_3_" cx="88.8799" cy="169.5781" r="21.5433" gradientUnits="userSpaceOnUse">
			<stop  offset="0" style="stop-color:#FFF68B"/>
			<stop  offset="1" style="stop-color:#C59B2B"/>
		</radialGradient>
		<polygon fill="none" stroke="url(#SVGID_3_)" stroke-width="0.3762" stroke-miterlimit="10" points="73.091,185.551 
			95.35,168.721 95.519,164.171 95.688,168.73 112.367,181.341 114.459,179.245 95.271,153.684 63.334,179.245 69.638,185.551 		"/>
		<radialGradient id="SVGID_4_" cx="103.9658" cy="175.9199" r="7.8533" gradientUnits="userSpaceOnUse">
			<stop  offset="0" style="stop-color:#FFF68B"/>
			<stop  offset="1" style="stop-color:#C59B2B"/>
		</radialGradient>
		<polygon fill="none" stroke="url(#SVGID_4_)" stroke-width="0.3762" stroke-miterlimit="10" points="95.752,170.517 
			110.852,182.854 112.148,181.557 95.701,169.123 		"/>
		<radialGradient id="SVGID_5_" cx="103.2402" cy="177.7734" r="7.4735" gradientUnits="userSpaceOnUse">
			<stop  offset="0" style="stop-color:#FFF68B"/>
			<stop  offset="1" style="stop-color:#C59B2B"/>
		</radialGradient>
		<polygon fill="none" stroke="url(#SVGID_5_)" stroke-width="0.3762" stroke-miterlimit="10" points="108.93,184.775 
			110.637,183.071 95.767,170.918 95.818,172.301 		"/>
		<radialGradient id="SVGID_6_" cx="100.6865" cy="180.0391" r="5.3529" gradientUnits="userSpaceOnUse">
			<stop  offset="0" style="stop-color:#FFF68B"/>
			<stop  offset="1" style="stop-color:#C59B2B"/>
		</radialGradient>
		<polygon fill="none" stroke="url(#SVGID_6_)" stroke-width="0.3762" stroke-miterlimit="10" points="105.254,185.551 
			95.913,174.861 95.959,176.102 102.912,185.551 		"/>
		<radialGradient id="SVGID_7_" cx="99.3389" cy="180.8867" r="4.2599" gradientUnits="userSpaceOnUse">
			<stop  offset="0" style="stop-color:#FFF68B"/>
			<stop  offset="1" style="stop-color:#C59B2B"/>
		</radialGradient>
		<polygon fill="none" stroke="url(#SVGID_7_)" stroke-width="0.3762" stroke-miterlimit="10" points="102.537,185.551 
			95.979,176.639 96.308,185.551 		"/>
		<radialGradient id="SVGID_8_" cx="102.3071" cy="179.0098" r="6.7032" gradientUnits="userSpaceOnUse">
			<stop  offset="0" style="stop-color:#FFF68B"/>
			<stop  offset="1" style="stop-color:#C59B2B"/>
		</radialGradient>
		<polygon fill="none" stroke="url(#SVGID_8_)" stroke-width="0.3762" stroke-miterlimit="10" points="108.157,185.551 
			108.715,184.99 95.835,172.735 95.894,174.378 105.655,185.551 		"/>
		<radialGradient id="SVGID_9_" cx="91.6914" cy="180.8799" r="4.2663" gradientUnits="userSpaceOnUse">
			<stop  offset="0" style="stop-color:#FFF68B"/>
			<stop  offset="1" style="stop-color:#C59B2B"/>
		</radialGradient>
		<polygon fill="none" stroke="url(#SVGID_9_)" stroke-width="0.3762" stroke-miterlimit="10" points="95.057,176.624 
			88.488,185.551 94.729,185.551 		"/>
		<radialGradient id="SVGID_10_" cx="84.2852" cy="177.2314" r="9.9739" gradientUnits="userSpaceOnUse">
			<stop  offset="0" style="stop-color:#FFF68B"/>
			<stop  offset="1" style="stop-color:#C59B2B"/>
		</radialGradient>
		<polygon fill="none" stroke="url(#SVGID_10_)" stroke-width="0.3762" stroke-miterlimit="10" points="95.333,169.112 
			73.595,185.551 76.875,185.551 95.284,170.508 		"/>
		<radialGradient id="SVGID_11_" cx="88.3291" cy="179.0039" r="6.9086" gradientUnits="userSpaceOnUse">
			<stop  offset="0" style="stop-color:#FFF68B"/>
			<stop  offset="1" style="stop-color:#C59B2B"/>
		</radialGradient>
		<polygon fill="none" stroke="url(#SVGID_11_)" stroke-width="0.3762" stroke-miterlimit="10" points="95.202,172.725 
			81.722,185.551 85.369,185.551 95.14,174.364 		"/>
		<radialGradient id="SVGID_12_" cx="86.1494" cy="178.1191" r="8.5144" gradientUnits="userSpaceOnUse">
			<stop  offset="0" style="stop-color:#FFF68B"/>
			<stop  offset="1" style="stop-color:#C59B2B"/>
		</radialGradient>
		<polygon fill="none" stroke="url(#SVGID_12_)" stroke-width="0.3762" stroke-miterlimit="10" points="95.27,170.909 
			77.354,185.551 81.282,185.551 95.219,172.287 		"/>
		<radialGradient id="SVGID_13_" cx="90.3438" cy="180.0313" r="5.3602" gradientUnits="userSpaceOnUse">
			<stop  offset="0" style="stop-color:#FFF68B"/>
			<stop  offset="1" style="stop-color:#C59B2B"/>
		</radialGradient>
		<polygon fill="none" stroke="url(#SVGID_13_)" stroke-width="0.3762" stroke-miterlimit="10" points="95.124,174.848 
			85.77,185.551 88.113,185.551 95.077,176.082 		"/>
	</g>
	<g>
		<path fill="#CFA636" d="M76.772,196.188v4.283h1.041c0.201,0,0.358-0.015,0.474-0.045c0.115-0.029,0.229-0.103,0.341-0.218
			s0.198-0.252,0.259-0.411s0.126-0.38,0.195-0.664h0.163l-0.128,1.515H75.22v-0.177h0.729v-4.283H75.22v-0.177h2.324v0.177H76.772z
			"/>
		<path fill="#CFA636" d="M83.487,196.188H82.73v-0.177h1.656v0.177h-0.729v2.804c0,0.405-0.031,0.705-0.092,0.899
			c-0.061,0.193-0.172,0.355-0.333,0.487c-0.162,0.131-0.354,0.227-0.579,0.287c-0.225,0.06-0.457,0.09-0.697,0.09
			c-0.507,0-0.878-0.08-1.114-0.239c-0.235-0.158-0.379-0.354-0.434-0.587c-0.054-0.233-0.082-0.546-0.082-0.938v-2.804h-0.67
			v-0.177h2.216v0.177h-0.729v2.725c0,0.375,0.017,0.67,0.052,0.885s0.128,0.393,0.28,0.536c0.152,0.143,0.393,0.214,0.723,0.214
			c0.268,0,0.507-0.055,0.719-0.164c0.212-0.109,0.36-0.256,0.444-0.44c0.084-0.185,0.126-0.528,0.126-1.03V196.188z"/>
		<path fill="#CFA636" d="M87.813,198.006l1.791,2.465h0.581v0.177h-2.331v-0.177h0.792l-1.331-1.836l-1.452,1.836h0.906v0.177
			h-1.833v-0.177h0.702l1.556-1.984l-1.67-2.299h-0.588v-0.177h2.31v0.177h-0.764l1.21,1.655l1.317-1.655h-0.795v-0.177h1.681v0.177
			h-0.654L87.813,198.006z"/>
		<path fill="#CFA636" d="M94.625,196.188h-0.757v-0.177h1.656v0.177h-0.729v2.804c0,0.405-0.031,0.705-0.092,0.899
			c-0.061,0.193-0.172,0.355-0.333,0.487c-0.162,0.131-0.354,0.227-0.579,0.287c-0.225,0.06-0.457,0.09-0.697,0.09
			c-0.507,0-0.878-0.08-1.114-0.239c-0.235-0.158-0.379-0.354-0.434-0.587c-0.054-0.233-0.082-0.546-0.082-0.938v-2.804h-0.67
			v-0.177h2.216v0.177H92.28v2.725c0,0.375,0.017,0.67,0.052,0.885s0.128,0.393,0.28,0.536c0.152,0.143,0.393,0.214,0.723,0.214
			c0.268,0,0.507-0.055,0.719-0.164c0.212-0.109,0.36-0.256,0.444-0.44c0.084-0.185,0.126-0.528,0.126-1.03V196.188z"/>
		<path fill="#CFA636" d="M96.965,200.471v-4.283h-0.729v-0.177h2.542c0.332,0,0.604,0.028,0.818,0.086
			c0.213,0.058,0.397,0.178,0.551,0.358s0.231,0.389,0.231,0.624c0,0.293-0.113,0.53-0.338,0.712
			c-0.226,0.183-0.609,0.319-1.148,0.412v0.017c0.388,0.076,0.705,0.224,0.953,0.443c0.248,0.219,0.372,0.59,0.372,1.113
			c0,0.3,0.035,0.491,0.105,0.575s0.167,0.127,0.292,0.127c0.081,0,0.178-0.017,0.291-0.049v0.169
			c-0.201,0.069-0.394,0.104-0.581,0.104c-0.38,0-0.649-0.106-0.806-0.318s-0.233-0.42-0.228-0.622l0.014-0.588
			c0-0.205-0.065-0.408-0.195-0.607s-0.426-0.299-0.887-0.299h-0.432v2.202h0.729v0.177h-2.282v-0.177H96.965z M97.789,196.188
			v1.919h0.622c0.268,0,0.472-0.019,0.612-0.054c0.14-0.036,0.253-0.129,0.337-0.28s0.126-0.392,0.126-0.721
			c0-0.27-0.042-0.467-0.128-0.592c-0.085-0.124-0.188-0.201-0.309-0.229c-0.121-0.029-0.28-0.043-0.476-0.043H97.789z"/>
		<path fill="#CFA636" d="M100.828,196.011h2.316v0.177h-0.764l1.358,2.047l1.338-2.047h-0.84v-0.177h1.643v0.177h-0.602
			l-1.452,2.216v2.067h0.771v0.177h-2.379v-0.177h0.785v-1.946l-1.556-2.337h-0.619V196.011z"/>
	</g>
	<g>
		<g>
			<path fill="#CFA636" stroke="#CFA636" stroke-width="0.1881" stroke-miterlimit="10" d="M75.594,191.176
				c0.185,0,0.359-0.034,0.524-0.104c0.164-0.069,0.307-0.165,0.428-0.286s0.216-0.264,0.286-0.429
				c0.069-0.164,0.104-0.339,0.104-0.523s-0.035-0.359-0.104-0.523c-0.069-0.165-0.165-0.308-0.286-0.429s-0.264-0.216-0.428-0.285
				c-0.165-0.069-0.339-0.104-0.524-0.104h-1.809v-0.13h1.809c0.202,0,0.393,0.039,0.571,0.117s0.334,0.184,0.467,0.315
				c0.133,0.133,0.238,0.289,0.316,0.468c0.078,0.179,0.117,0.369,0.117,0.571s-0.039,0.393-0.117,0.571
				c-0.078,0.179-0.183,0.335-0.316,0.468s-0.289,0.238-0.467,0.315c-0.179,0.078-0.369,0.117-0.571,0.117V191.176z M73.915,194.422
				h-0.13v-6.06h0.13V194.422z M76.019,191.167c0.225,0,0.436,0.044,0.632,0.13c0.196,0.087,0.368,0.203,0.515,0.351
				c0.147,0.147,0.264,0.319,0.351,0.516c0.086,0.195,0.13,0.406,0.13,0.632c0,0.225-0.043,0.437-0.13,0.636
				c-0.087,0.199-0.204,0.372-0.351,0.52c-0.147,0.147-0.319,0.263-0.515,0.346c-0.196,0.084-0.407,0.126-0.632,0.126h-2.233v-0.139
				h2.233c0.208,0,0.402-0.039,0.584-0.116c0.182-0.078,0.341-0.186,0.476-0.32c0.136-0.136,0.243-0.293,0.32-0.473
				c0.078-0.179,0.117-0.372,0.117-0.579c0-0.208-0.039-0.401-0.117-0.58c-0.078-0.179-0.185-0.336-0.32-0.472
				c-0.135-0.136-0.294-0.243-0.476-0.32c-0.182-0.078-0.376-0.117-0.584-0.117V191.167z M76.027,191.306h-2.242v-0.13h2.242
				V191.306z"/>
			<path fill="#CFA636" stroke="#CFA636" stroke-width="0.1881" stroke-miterlimit="10" d="M78.324,194.422v-6.06h0.13v6.06H78.324z
				 M78.324,188.492v-0.13h3.047v0.13H78.324z M78.324,191.453v-0.13h2.779v0.13H78.324z M78.324,194.422v-0.13h3.047v0.13H78.324z"
				/>
			<path fill="#CFA636" stroke="#CFA636" stroke-width="0.1881" stroke-miterlimit="10" d="M81.908,194.422v-6.06h0.13v6.06H81.908z
				 M81.908,194.422v-0.13h3.047v0.13H81.908z"/>
			<path fill="#CFA636" stroke="#CFA636" stroke-width="0.1881" stroke-miterlimit="10" d="M87.62,194.422
				c-0.381,0-0.74-0.079-1.078-0.238c-0.338-0.158-0.632-0.375-0.883-0.649c-0.251-0.273-0.45-0.596-0.597-0.965
				s-0.221-0.762-0.221-1.177c0-0.416,0.074-0.809,0.221-1.178s0.346-0.69,0.597-0.965s0.545-0.49,0.883-0.649
				c0.337-0.158,0.697-0.238,1.078-0.238c0.427,0,0.833,0.102,1.22,0.304c0.185,0.098,0.365,0.229,0.541,0.394
				c0.176,0.164,0.331,0.336,0.463,0.515H89.68c-0.254-0.352-0.557-0.621-0.909-0.81c-0.352-0.187-0.735-0.281-1.151-0.281
				c-0.364,0-0.707,0.077-1.03,0.229c-0.323,0.153-0.604,0.361-0.844,0.623c-0.24,0.263-0.429,0.571-0.567,0.927
				c-0.138,0.354-0.208,0.731-0.208,1.13c0,0.397,0.069,0.774,0.208,1.129c0.139,0.355,0.328,0.664,0.567,0.927
				c0.239,0.263,0.521,0.471,0.844,0.623c0.323,0.153,0.667,0.229,1.03,0.229c0.416,0,0.808-0.103,1.177-0.308
				c0.369-0.204,0.681-0.483,0.935-0.835l0.113,0.052c-0.133,0.179-0.287,0.351-0.463,0.515c-0.176,0.165-0.356,0.296-0.541,0.395
				C88.471,194.321,88.064,194.422,87.62,194.422z M88.001,191.955v-0.13h1.844v0.13H88.001z M89.715,191.825h0.13v2.588h-0.13
				V191.825z"/>
			<path fill="#CFA636" stroke="#CFA636" stroke-width="0.1881" stroke-miterlimit="10" d="M90.662,191.306v-0.13h1.809
				c0.185,0,0.359-0.034,0.524-0.104c0.164-0.069,0.307-0.165,0.428-0.286s0.216-0.264,0.286-0.429
				c0.069-0.164,0.104-0.339,0.104-0.523s-0.035-0.359-0.104-0.523c-0.069-0.165-0.165-0.308-0.286-0.429s-0.264-0.216-0.428-0.285
				c-0.165-0.069-0.339-0.104-0.524-0.104h-1.809v-0.13h1.809c0.202,0,0.393,0.039,0.571,0.117s0.334,0.184,0.467,0.315
				c0.133,0.133,0.238,0.289,0.316,0.468c0.078,0.179,0.117,0.369,0.117,0.571s-0.039,0.393-0.117,0.571
				c-0.078,0.179-0.183,0.335-0.316,0.468s-0.289,0.238-0.467,0.315c-0.179,0.078-0.369,0.117-0.571,0.117H90.662z M90.792,194.422
				h-0.13v-6.06h0.13V194.422z M93.994,194.422l-1.653-3.143l0.121-0.068l1.662,3.211H93.994z"/>
			<path fill="#CFA636" stroke="#CFA636" stroke-width="0.1881" stroke-miterlimit="10" d="M99.44,194.422h-0.13l-2.25-5.878
				l-2.25,5.878h-0.13l2.311-6.06h0.139L99.44,194.422z M95.52,192.414v-0.13h3.073v0.13H95.52z"/>
			<path fill="#CFA636" stroke="#CFA636" stroke-width="0.1881" stroke-miterlimit="10" d="M101.766,188.492h-1.792l-0.017-0.13
				h1.809V188.492z M99.974,188.362h0.13v6.06h-0.13V188.362z M101.774,194.422h-1.8v-0.13h1.8V194.422z M101.757,194.292
				c0.363,0,0.707-0.076,1.03-0.229c0.323-0.152,0.604-0.36,0.844-0.623c0.239-0.263,0.43-0.57,0.571-0.922
				c0.141-0.352,0.212-0.728,0.212-1.125c0-0.398-0.069-0.773-0.208-1.126c-0.139-0.352-0.329-0.659-0.571-0.922
				c-0.243-0.262-0.525-0.47-0.848-0.623c-0.324-0.152-0.667-0.229-1.03-0.229v-0.13c0.369,0,0.721,0.077,1.056,0.229
				c0.334,0.153,0.629,0.363,0.883,0.632s0.457,0.589,0.61,0.961c0.153,0.372,0.229,0.774,0.229,1.208
				c0,0.375-0.064,0.743-0.19,1.104c-0.127,0.36-0.311,0.684-0.55,0.97c-0.24,0.285-0.531,0.516-0.875,0.692
				c-0.343,0.176-0.731,0.264-1.164,0.264V194.292z"/>
			<path fill="#CFA636" stroke="#CFA636" stroke-width="0.1881" stroke-miterlimit="10" d="M105.248,194.422v-6.06h0.13v6.06
				H105.248z M105.248,188.492v-0.13h3.047v0.13H105.248z M105.248,191.453v-0.13h2.779v0.13H105.248z M105.248,194.422v-0.13h3.047
				v0.13H105.248z"/>
		</g>
	</g>
</g>
<g>
	<g>
		<path fill="#CFA636" stroke="#CFA636" stroke-width="0.3904" stroke-miterlimit="10" d="M63.44,121.091v-5.6h0.12v5.6H63.44z
			 M63.44,121.091v-0.12h2.816v0.12H63.44z"/>
		<path fill="#CFA636" stroke="#CFA636" stroke-width="0.3904" stroke-miterlimit="10" d="M66.606,119.587h-0.12v-4.096h0.12
			V119.587z M69.494,119.587c0,0.208-0.04,0.403-0.12,0.584c-0.08,0.181-0.188,0.341-0.324,0.48
			c-0.136,0.139-0.295,0.248-0.476,0.328c-0.181,0.08-0.376,0.12-0.584,0.12s-0.403-0.04-0.584-0.12
			c-0.181-0.08-0.34-0.189-0.476-0.328c-0.136-0.139-0.244-0.299-0.324-0.48s-0.12-0.376-0.12-0.584h0.12
			c0,0.192,0.036,0.372,0.108,0.54c0.072,0.168,0.17,0.316,0.296,0.444s0.272,0.228,0.44,0.3c0.168,0.072,0.348,0.108,0.54,0.108
			s0.372-0.036,0.54-0.108c0.168-0.072,0.314-0.172,0.44-0.3s0.224-0.276,0.296-0.444c0.072-0.168,0.108-0.348,0.108-0.54H69.494z
			 M69.494,119.587h-0.12v-4.096h0.12V119.587z"/>
		<path fill="#CFA636" stroke="#CFA636" stroke-width="0.3904" stroke-miterlimit="10" d="M70.011,115.491h0.136l2.872,5.6h-0.136
			L70.011,115.491z M70.147,121.091h-0.136l2.872-5.6h0.136L70.147,121.091z"/>
		<path fill="#CFA636" stroke="#CFA636" stroke-width="0.3904" stroke-miterlimit="10" d="M73.656,119.587h-0.12v-4.096h0.12
			V119.587z M76.543,119.587c0,0.208-0.04,0.403-0.12,0.584c-0.08,0.181-0.188,0.341-0.324,0.48
			c-0.136,0.139-0.295,0.248-0.476,0.328c-0.181,0.08-0.376,0.12-0.584,0.12s-0.403-0.04-0.584-0.12
			c-0.181-0.08-0.34-0.189-0.476-0.328c-0.136-0.139-0.244-0.299-0.324-0.48s-0.12-0.376-0.12-0.584h0.12
			c0,0.192,0.036,0.372,0.108,0.54c0.072,0.168,0.17,0.316,0.296,0.444s0.272,0.228,0.44,0.3c0.168,0.072,0.348,0.108,0.54,0.108
			s0.372-0.036,0.54-0.108c0.168-0.072,0.314-0.172,0.44-0.3s0.224-0.276,0.296-0.444c0.072-0.168,0.108-0.348,0.108-0.54H76.543z
			 M76.543,119.587h-0.12v-4.096h0.12V119.587z"/>
		<path fill="#CFA636" stroke="#CFA636" stroke-width="0.3904" stroke-miterlimit="10" d="M77.368,118.211v-0.12h1.672
			c0.171,0,0.332-0.032,0.484-0.096c0.152-0.064,0.284-0.152,0.396-0.264c0.112-0.112,0.2-0.244,0.264-0.396
			c0.064-0.152,0.096-0.313,0.096-0.484c0-0.17-0.032-0.332-0.096-0.484c-0.064-0.152-0.152-0.284-0.264-0.396
			c-0.112-0.112-0.244-0.2-0.396-0.264c-0.152-0.064-0.313-0.096-0.484-0.096h-1.672v-0.12h1.672c0.187,0,0.363,0.036,0.528,0.108
			c0.165,0.072,0.309,0.169,0.432,0.292c0.123,0.123,0.22,0.267,0.292,0.432c0.072,0.166,0.108,0.341,0.108,0.528
			c0,0.187-0.036,0.363-0.108,0.528c-0.072,0.166-0.169,0.309-0.292,0.432c-0.123,0.123-0.267,0.22-0.432,0.292
			c-0.166,0.072-0.342,0.108-0.528,0.108H77.368z M77.488,121.091h-0.12v-5.6h0.12V121.091z M80.448,121.091l-1.528-2.904
			l0.112-0.064l1.536,2.968H80.448z"/>
		<path fill="#CFA636" stroke="#CFA636" stroke-width="0.3904" stroke-miterlimit="10" d="M82.395,118.531h-0.12l-1.448-3.04h0.136
			l1.368,2.888l1.36-2.888h0.144L82.395,118.531z M82.275,121.091v-2.592h0.12v2.592H82.275z"/>
		<path fill="#CFA636" stroke="#CFA636" stroke-width="0.3904" stroke-miterlimit="10" d="M86.25,118.211l0.12-0.12h1.552
			c0.171,0,0.332-0.032,0.484-0.096c0.152-0.064,0.284-0.152,0.396-0.264c0.112-0.112,0.2-0.244,0.264-0.396
			c0.064-0.152,0.096-0.313,0.096-0.484c0-0.17-0.032-0.332-0.096-0.484c-0.064-0.152-0.152-0.284-0.264-0.396
			c-0.112-0.112-0.244-0.2-0.396-0.264c-0.152-0.064-0.313-0.096-0.484-0.096H86.25v-0.12h1.672c0.187,0,0.363,0.036,0.528,0.108
			c0.165,0.072,0.309,0.169,0.432,0.292c0.123,0.123,0.22,0.267,0.292,0.432c0.072,0.166,0.108,0.341,0.108,0.528
			c0,0.187-0.036,0.363-0.108,0.528c-0.072,0.166-0.169,0.309-0.292,0.432c-0.123,0.123-0.267,0.22-0.432,0.292
			c-0.166,0.072-0.342,0.108-0.528,0.108H86.25z M86.371,121.091h-0.12v-5.6h0.12V121.091z"/>
		<path fill="#CFA636" stroke="#CFA636" stroke-width="0.3904" stroke-miterlimit="10" d="M93.538,121.091h-0.12l-2.08-5.432
			l-2.08,5.432h-0.12l2.136-5.6h0.128L93.538,121.091z M89.914,119.235v-0.12h2.84v0.12H89.914z"/>
		<path fill="#CFA636" stroke="#CFA636" stroke-width="0.3904" stroke-miterlimit="10" d="M96.275,121.091
			c-0.352,0-0.684-0.073-0.996-0.22c-0.312-0.146-0.584-0.346-0.816-0.6s-0.416-0.551-0.552-0.892
			c-0.136-0.341-0.204-0.704-0.204-1.088c0-0.384,0.068-0.747,0.204-1.088c0.136-0.341,0.32-0.639,0.552-0.892
			c0.232-0.253,0.504-0.454,0.816-0.6c0.312-0.147,0.644-0.22,0.996-0.22c0.395,0,0.771,0.093,1.128,0.28
			c0.171,0.09,0.337,0.212,0.5,0.364s0.306,0.311,0.428,0.476h-0.152c-0.235-0.325-0.515-0.575-0.84-0.748s-0.68-0.26-1.064-0.26
			c-0.336,0-0.653,0.07-0.952,0.212c-0.299,0.141-0.559,0.333-0.78,0.576c-0.221,0.243-0.396,0.528-0.524,0.856
			c-0.128,0.328-0.192,0.676-0.192,1.044c0,0.368,0.064,0.716,0.192,1.044c0.128,0.328,0.303,0.613,0.524,0.856
			s0.481,0.435,0.78,0.576c0.298,0.142,0.616,0.212,0.952,0.212c0.384,0,0.739-0.087,1.064-0.26s0.605-0.422,0.84-0.748h0.152
			c-0.123,0.166-0.266,0.324-0.428,0.476s-0.329,0.273-0.5,0.364C97.062,120.998,96.686,121.091,96.275,121.091z"/>
		<path fill="#CFA636" stroke="#CFA636" stroke-width="0.3904" stroke-miterlimit="10" d="M98.906,121.091v-5.6h0.12v5.6H98.906z
			 M98.922,118.539l2.832-3.048h0.16l-2.912,3.128L98.922,118.539z M99.778,117.675l0.096-0.064l2.04,3.48h-0.136L99.778,117.675z"
			/>
		<path fill="#CFA636" stroke="#CFA636" stroke-width="0.3904" stroke-miterlimit="10" d="M106.831,121.091h-0.12l-2.08-5.432
			l-2.08,5.432h-0.12l2.136-5.6h0.128L106.831,121.091z M103.207,119.235v-0.12h2.84v0.12H103.207z"/>
		<path fill="#CFA636" stroke="#CFA636" stroke-width="0.3904" stroke-miterlimit="10" d="M109.567,121.091
			c-0.352,0-0.684-0.073-0.996-0.22c-0.312-0.146-0.584-0.346-0.816-0.6s-0.416-0.551-0.552-0.892
			c-0.136-0.341-0.204-0.704-0.204-1.088c0-0.384,0.068-0.747,0.204-1.088c0.136-0.341,0.32-0.639,0.552-0.892
			c0.232-0.253,0.504-0.454,0.816-0.6c0.312-0.147,0.644-0.22,0.996-0.22c0.395,0,0.771,0.093,1.128,0.28
			c0.171,0.09,0.337,0.212,0.5,0.364s0.306,0.311,0.428,0.476h-0.152c-0.235-0.325-0.515-0.575-0.84-0.748s-0.68-0.26-1.064-0.26
			c-0.336,0-0.653,0.07-0.952,0.212c-0.299,0.141-0.559,0.333-0.78,0.576c-0.221,0.243-0.396,0.528-0.524,0.856
			c-0.128,0.328-0.192,0.676-0.192,1.044c0,0.368,0.064,0.716,0.192,1.044c0.128,0.328,0.303,0.613,0.524,0.856
			s0.481,0.435,0.78,0.576c0.298,0.142,0.616,0.212,0.952,0.212c0.384,0,0.747-0.095,1.088-0.284s0.629-0.447,0.864-0.772
			l0.104,0.048c-0.123,0.166-0.266,0.324-0.428,0.476s-0.329,0.273-0.5,0.364C110.354,120.998,109.978,121.091,109.567,121.091z
			 M109.919,118.811v-0.12h1.704v0.12H109.919z M111.503,118.691h0.12v2.392h-0.12V118.691z"/>
		<path fill="#CFA636" stroke="#CFA636" stroke-width="0.3904" stroke-miterlimit="10" d="M112.397,121.091v-5.6h0.12v5.6H112.397z
			 M112.397,115.611v-0.12h2.816v0.12H112.397z M112.397,118.347v-0.12h2.568v0.12H112.397z M112.397,121.091v-0.12h2.816v0.12
			H112.397z"/>
	</g>
</g>
<line fill="none" stroke="#CFA636" stroke-width="0.5" stroke-miterlimit="10" x1="54.683" y1="123.37" x2="158.49" y2="123.37"/>
<g>
</g>
<g>
</g>
<g>
</g>
<g>
</g>
<g>
</g>
<g>
</g>
<g>
</g>
</svg>
