<?xml version="1.0" encoding="iso-8859-1"?>
<!-- Generator: Adobe Illustrator 19.0.0, SVG Export Plug-In . SVG Version: 6.00 Build 0)  -->
<svg xmlns="http://www.w3.org/2000/svg" xmlns:xlink="http://www.w3.org/1999/xlink" version="1.1" id="Layer_1" x="0px" y="0px" viewBox="0 0 512 512" style="enable-background:new 0 0 512 512;" xml:space="preserve" width="512px" height="512px">
<g>
	<g>
		<rect x="169.69" y="496.792" width="231.799" height="15.208" fill="#F9F9F9"/>
	</g>
</g>
<g>
	<g>
		<path d="M293.189,297.798L471.835,95.29H245.669C241.764,42.091,197.236,0,143.058,0C86.323,0,40.165,46.158,40.165,102.894    c0,56.735,46.157,102.891,102.893,102.891c15.495,0,30.831-3.527,44.722-10.236l90.201,102.25v168.576h-77.876v15.208h170.958    v-15.208h-77.875V297.798z M230.415,95.288h-69l48.752-48.751C221.462,59.967,228.82,76.812,230.415,95.288z M150.662,15.552    c18.474,1.595,35.331,8.928,48.76,20.222l-48.76,48.76V15.552z M135.454,15.542v68.932L86.701,35.775    C100.131,24.481,116.981,17.135,135.454,15.542z M75.947,46.528l48.812,48.76H55.708C57.302,76.811,64.65,59.958,75.947,46.528z     M55.706,110.496h57.044l5.601,6.35l-42.408,42.408C64.647,145.824,57.3,128.97,55.706,110.496z M135.454,190.244    c-18.475-1.594-35.328-8.94-48.758-20.237l41.735-41.735l7.023,7.961V190.244z M150.662,190.224v-36.751l26.603,30.156    C168.817,187.207,159.823,189.424,150.662,190.224z M201.485,188.096l-21.039-23.848h132.009V149.04H167.031l-33.999-38.541    h112.92h192.188l-34,38.54h-64.81v15.208h51.395L285.586,283.43L201.485,188.096z" fill="#F9F9F9"/>
	</g>
</g>
<g>
</g>
<g>
</g>
<g>
</g>
<g>
</g>
<g>
</g>
<g>
</g>
<g>
</g>
<g>
</g>
<g>
</g>
<g>
</g>
<g>
</g>
<g>
</g>
<g>
</g>
<g>
</g>
<g>
</g>
</svg>
