<?xml version="1.0" encoding="iso-8859-1"?>
<!-- Generator: Adobe Illustrator 19.0.0, SVG Export Plug-In . SVG Version: 6.00 Build 0)  -->
<svg xmlns="http://www.w3.org/2000/svg" xmlns:xlink="http://www.w3.org/1999/xlink" version="1.1" id="Layer_1" x="0px" y="0px" viewBox="0 0 485 485" style="enable-background:new 0 0 485 485;" xml:space="preserve" width="512px" height="512px">
<g>
	<g>
		<g>
			<path d="M372.5,0h-260C51.846,0,2.5,49.346,2.5,110v175c0,60.654,49.346,110,110,110h40v80c0,3.787,2.139,7.25,5.528,8.944     c1.415,0.708,2.947,1.056,4.471,1.056c2.125,0,4.236-0.677,6.001-2l117.333-88H372.5c60.654,0,110-49.346,110-110V110     C482.5,49.346,433.154,0,372.5,0z M462.5,285c0,49.626-40.374,90-90,90h-90c-2.164,0-4.269,0.702-6,2l-104,78v-70     c0-5.523-4.477-10-10-10h-50c-49.626,0-90-40.374-90-90V110c0-49.626,40.374-90,90-90h260c49.626,0,90,40.374,90,90V285z" fill="#888888"/>
			<path d="M272.179,233.336c-0.033-0.032-0.065-0.064-0.098-0.096c-3.812-3.718-8.826-5.765-14.118-5.765     c-5.339,0-10.359,2.08-14.133,5.854l-14.135,14.136l-42.446-42.371l14.122-14.122c3.775-3.775,5.854-8.808,5.854-14.171     c0-5.364-2.08-10.397-5.854-14.171l-49.499-49.499c-3.775-3.775-8.79-5.855-14.122-5.855c-5.332,0-10.347,2.079-14.121,5.854     l-46,46c-2.189,2.188-3.241,5.266-2.849,8.336c0.248,1.931,6.824,48.081,75.644,116.9c68.737,68.839,115,75.315,116.936,75.557     c0.414,0.052,0.828,0.077,1.241,0.077c2.634,0,5.183-1.042,7.071-2.929l10.55-10.551l35.32-35.319     c3.843-3.778,5.959-8.818,5.959-14.201c0-5.385-2.116-10.425-5.96-14.203L272.179,233.336z M307.417,297.041l-42.038,42.038     c-12.25-3.318-48.963-16.929-100.807-68.851c-51.38-51.379-65.412-88.541-68.896-100.862l42.054-42.095l49.5,49.557l-21.2,21.201     c-1.876,1.876-2.93,4.421-2.929,7.075c0.001,2.654,1.057,5.199,2.936,7.073l56.6,56.5c3.907,3.899,10.234,3.897,14.136-0.006     l21.19-21.196c0.042,0,0.086,0.021,0.137,0.066l49.323,49.422c0.012,0.011,0.023,0.023,0.036,0.036     C307.445,297.013,307.432,297.027,307.417,297.041z" fill="#888888"/>
			<path d="M237.5,100v20c49.626,0,90,40.374,90,90h20C347.5,149.346,298.154,100,237.5,100z" fill="#888888"/>
			<path d="M282.5,205h20c0-35.841-29.159-65-65-65v20C262.314,160,282.5,180.187,282.5,205z" fill="#888888"/>
			<path d="M237.5,60v20c74.44,0,135,60.561,135,135h20C392.5,129.533,322.968,60,237.5,60z" fill="#888888"/>
		</g>
	</g>
</g>
<g>
</g>
<g>
</g>
<g>
</g>
<g>
</g>
<g>
</g>
<g>
</g>
<g>
</g>
<g>
</g>
<g>
</g>
<g>
</g>
<g>
</g>
<g>
</g>
<g>
</g>
<g>
</g>
<g>
</g>
</svg>
