<?xml version="1.0" encoding="iso-8859-1"?>
<!-- Generator: Adobe Illustrator 19.0.0, SVG Export Plug-In . SVG Version: 6.00 Build 0)  -->
<svg xmlns="http://www.w3.org/2000/svg" xmlns:xlink="http://www.w3.org/1999/xlink" version="1.1" id="Layer_1" x="0px" y="0px" viewBox="0 0 463.006 463.006" style="enable-background:new 0 0 463.006 463.006;" xml:space="preserve" width="512px" height="512px">
<g>
	<g>
		<path d="M391.502,200.005c-4.142,0-7.5,3.358-7.5,7.5v0.5h-19.239l1.833-33h0.905c4.142,0,7.5-3.358,7.5-7.5    c0-4.142-3.358-7.5-7.5-7.5H336.37c2.776-25.34,6.27-51.923,10.418-79.175c0.823-5.408-1.265-10.67-5.151-14.077l3.428-11.937    c5.31-1.229,9.822-5.218,11.43-10.817l4.417-15.379c2.358-8.215-2.406-16.817-10.62-19.176L319.537,0.61    c-3.979-1.144-8.166-0.667-11.788,1.338s-6.246,5.302-7.389,9.281l-4.417,15.378c-1.143,3.979-0.668,8.166,1.337,11.787    c0.713,1.288,1.596,2.442,2.608,3.456l-3.426,11.929c-5.101,0.826-9.664,4.178-11.836,9.199    c-8.854,20.466-39.74,86.178-45.227,97.028H231v-0.5c0-8.547-6.953-15.5-15.5-15.5h-64c-8.547,0-15.5,6.953-15.5,15.5v0.5H95.5    c-4.142,0-7.5,3.358-7.5,7.5c0,4.142,3.358,7.5,7.5,7.5h0.905l1.833,33H79.002v-0.5c0-4.142-3.358-7.5-7.5-7.5    c-4.142,0-7.5,3.358-7.5,7.5v72c0,4.142,3.358,7.5,7.5,7.5c4.142,0,7.5-3.358,7.5-7.5v-24.5h21.85l10.323,185.803    c0.691,12.447,10.997,22.197,23.463,22.197h193.729c12.466,0,22.772-9.75,23.463-22.196l10.323-185.804h21.85v24.5    c0,4.142,3.358,7.5,7.5,7.5c4.142,0,7.5-3.358,7.5-7.5v-72C399.002,203.363,395.644,200.005,391.502,200.005z M79.002,240.005v-17    h20.072l0.945,17H79.002z M310.361,30.747l4.417-15.378c0.014-0.049,0.057-0.199,0.238-0.3c0.091-0.05,0.173-0.064,0.24-0.064    c0.066,0,0.116,0.015,0.141,0.021l30.757,8.834c0.049,0.014,0.199,0.057,0.299,0.238c0.101,0.182,0.057,0.332,0.043,0.38    l-4.417,15.378c-0.014,0.049-0.057,0.199-0.238,0.299c-0.181,0.1-0.33,0.057-0.38,0.043l-30.757-8.834    c-0.049-0.014-0.198-0.057-0.299-0.237S310.347,30.797,310.361,30.747z M330.112,52.546l-2.484,8.651l-16.34-4.693l2.484-8.651    L330.112,52.546z M298.394,68.933c0.108-0.25,0.393-0.417,0.615-0.35l0.925,0.266c0.001,0,0.003,0.001,0.004,0.001    c0.001,0,0.002,0,0.003,0.001l31.683,9.099c0.219,0.063,0.376,0.354,0.335,0.623c-2.855,18.757-5.403,37.204-7.626,55.159    l-30.504,12.721l-18.515-26.134C282.349,105.24,290.121,88.056,298.394,68.933z M322.306,150.831    c-0.351,3.075-0.692,6.134-1.022,9.174h-20.979L322.306,150.831z M267.962,135.887l17.086,24.118h-28.862    C259.695,152.974,263.645,144.914,267.962,135.887z M151.002,167.563c0-0.02,0.003-0.038,0.003-0.058s-0.003-0.038-0.003-0.058    v-7.942c0-0.276,0.224-0.5,0.5-0.5h64c0.276,0,0.5,0.224,0.5,0.5v7.961c0,0.013-0.002,0.026-0.002,0.039s0.002,0.026,0.002,0.039    v31.884c0,0.026-0.004,0.051-0.004,0.077s0.004,0.051,0.004,0.077v153.569l-33,5.5V199.505c0-4.142-3.358-7.5-7.5-7.5    c-4.142,0-7.5,3.358-7.5,7.5v142.394l-17-4.25V167.563z M111.43,175.005h24.572v17h-23.627L111.43,175.005z M336.851,439.977    c-0.248,4.502-3.976,8.028-8.485,8.028H134.637c-4.509,0-8.237-3.526-8.487-8.028l-0.499-8.972H337.35L336.851,439.977z     M338.184,416.005H124.819l-11.611-209h22.794v136.5c0,3.441,2.342,6.441,5.681,7.276l26.319,6.58v10.144    c0,2.205,0.97,4.298,2.652,5.723c1.364,1.156,3.085,1.777,4.848,1.777c0.41,0,0.822-0.034,1.233-0.102l48-8    c0.04-0.007,0.078-0.018,0.118-0.026c0.149-0.027,0.295-0.061,0.441-0.097c0.099-0.024,0.198-0.048,0.295-0.076    c0.138-0.04,0.274-0.086,0.409-0.134c0.103-0.036,0.205-0.072,0.306-0.112c0.12-0.048,0.236-0.102,0.353-0.156    c0.11-0.051,0.219-0.101,0.326-0.157c0.102-0.053,0.2-0.112,0.299-0.17c0.113-0.066,0.227-0.132,0.335-0.204    c0.089-0.058,0.174-0.121,0.26-0.183c0.11-0.079,0.22-0.158,0.325-0.243c0.083-0.067,0.162-0.138,0.242-0.208    c0.099-0.087,0.199-0.174,0.293-0.266c0.082-0.079,0.158-0.163,0.236-0.246c0.084-0.09,0.169-0.18,0.249-0.274    c0.08-0.095,0.155-0.194,0.231-0.292c0.069-0.09,0.138-0.178,0.203-0.271c0.076-0.109,0.146-0.222,0.216-0.335    c0.056-0.09,0.113-0.179,0.165-0.272c0.066-0.118,0.126-0.239,0.187-0.361c0.047-0.095,0.095-0.19,0.138-0.287    c0.052-0.119,0.099-0.241,0.145-0.363c0.041-0.108,0.083-0.215,0.119-0.325c0.037-0.113,0.069-0.229,0.101-0.345    c0.034-0.125,0.069-0.25,0.097-0.377c0.023-0.105,0.041-0.211,0.06-0.318c0.025-0.141,0.048-0.283,0.065-0.426    c0.012-0.1,0.019-0.201,0.026-0.302c0.011-0.15,0.021-0.3,0.023-0.452c0.001-0.04,0.006-0.079,0.006-0.12v-152.5h118.794    L338.184,416.005z M350.629,192.005H231.002v-17h120.572L350.629,192.005z M384.001,240.005h-21.016l0.944-17h20.072V240.005z" fill="#0a0a0a"/>
	</g>
</g>
<g>
</g>
<g>
</g>
<g>
</g>
<g>
</g>
<g>
</g>
<g>
</g>
<g>
</g>
<g>
</g>
<g>
</g>
<g>
</g>
<g>
</g>
<g>
</g>
<g>
</g>
<g>
</g>
<g>
</g>
</svg>
