<?xml version="1.0" encoding="utf-8"?>
<!-- Generator: Adobe Illustrator 16.0.0, SVG Export Plug-In . SVG Version: 6.00 Build 0)  -->
<!DOCTYPE svg PUBLIC "-//W3C//DTD SVG 1.1//EN" "http://www.w3.org/Graphics/SVG/1.1/DTD/svg11.dtd">
<svg version="1.1" id="Layer_1" xmlns="http://www.w3.org/2000/svg" xmlns:xlink="http://www.w3.org/1999/xlink" x="0px" y="0px"
	 width="174.33px" height="109.13px" viewBox="0 0 174.33 109.13" enable-background="new 0 0 174.33 109.13" xml:space="preserve">
<rect x="0.119" y="0.104" fill="#010101" width="174.092" height="108.924"/>
<rect x="0.119" y="0.104" fill="none" width="174.092" height="108.924"/>
<g>
	<g>
		
			<radialGradient id="SVGID_1_" cx="343.1504" cy="-211.4736" r="21.5434" gradientTransform="matrix(1 0 0 -1 -308.835 -140.5645)" gradientUnits="userSpaceOnUse">
			<stop  offset="0" style="stop-color:#FEF48F"/>
			<stop  offset="1" style="stop-color:#C49B2D"/>
		</radialGradient>
		<polygon fill="none" stroke="url(#SVGID_1_)" stroke-width="0.3762" stroke-miterlimit="10" points="18.526,86.883 40.786,70.053 
			40.955,65.503 41.124,70.062 57.803,82.674 59.895,80.578 40.707,55.016 8.77,80.578 15.074,86.883 		"/>
		
			<radialGradient id="SVGID_2_" cx="358.2363" cy="-217.8164" r="7.8528" gradientTransform="matrix(1 0 0 -1 -308.835 -140.5645)" gradientUnits="userSpaceOnUse">
			<stop  offset="0" style="stop-color:#FEF48F"/>
			<stop  offset="1" style="stop-color:#C49B2D"/>
		</radialGradient>
		<polygon fill="none" stroke="url(#SVGID_2_)" stroke-width="0.3762" stroke-miterlimit="10" points="41.188,71.85 56.288,84.186 
			57.583,82.889 41.137,70.454 		"/>
		
			<radialGradient id="SVGID_3_" cx="357.5117" cy="-219.6699" r="7.4735" gradientTransform="matrix(1 0 0 -1 -308.835 -140.5645)" gradientUnits="userSpaceOnUse">
			<stop  offset="0" style="stop-color:#FEF48F"/>
			<stop  offset="1" style="stop-color:#C49B2D"/>
		</radialGradient>
		<polygon fill="none" stroke="url(#SVGID_3_)" stroke-width="0.3762" stroke-miterlimit="10" points="54.366,86.107 56.073,84.402 
			41.203,72.25 41.253,73.633 		"/>
		
			<radialGradient id="SVGID_4_" cx="354.957" cy="-221.9351" r="5.3532" gradientTransform="matrix(1 0 0 -1 -308.835 -140.5645)" gradientUnits="userSpaceOnUse">
			<stop  offset="0" style="stop-color:#FEF48F"/>
			<stop  offset="1" style="stop-color:#C49B2D"/>
		</radialGradient>
		<polygon fill="none" stroke="url(#SVGID_4_)" stroke-width="0.3762" stroke-miterlimit="10" points="50.689,86.883 41.349,76.193 
			41.395,77.434 48.348,86.883 		"/>
		
			<radialGradient id="SVGID_5_" cx="353.6094" cy="-222.7837" r="4.2597" gradientTransform="matrix(1 0 0 -1 -308.835 -140.5645)" gradientUnits="userSpaceOnUse">
			<stop  offset="0" style="stop-color:#FEF48F"/>
			<stop  offset="1" style="stop-color:#C49B2D"/>
		</radialGradient>
		<polygon fill="none" stroke="url(#SVGID_5_)" stroke-width="0.3762" stroke-miterlimit="10" points="47.973,86.883 41.415,77.971 
			41.744,86.883 		"/>
		
			<radialGradient id="SVGID_6_" cx="356.5781" cy="-220.9063" r="6.7032" gradientTransform="matrix(1 0 0 -1 -308.835 -140.5645)" gradientUnits="userSpaceOnUse">
			<stop  offset="0" style="stop-color:#FEF48F"/>
			<stop  offset="1" style="stop-color:#C49B2D"/>
		</radialGradient>
		<polygon fill="none" stroke="url(#SVGID_6_)" stroke-width="0.3762" stroke-miterlimit="10" points="53.593,86.883 54.15,86.322 
			41.271,74.066 41.33,75.711 51.09,86.883 		"/>
		
			<radialGradient id="SVGID_7_" cx="345.9629" cy="-222.7769" r="4.2657" gradientTransform="matrix(1 0 0 -1 -308.835 -140.5645)" gradientUnits="userSpaceOnUse">
			<stop  offset="0" style="stop-color:#FEF48F"/>
			<stop  offset="1" style="stop-color:#C49B2D"/>
		</radialGradient>
		<polygon fill="none" stroke="url(#SVGID_7_)" stroke-width="0.3762" stroke-miterlimit="10" points="40.493,77.957 33.923,86.883 
			40.165,86.883 		"/>
		
			<radialGradient id="SVGID_8_" cx="338.5547" cy="-219.1274" r="9.9741" gradientTransform="matrix(1 0 0 -1 -308.835 -140.5645)" gradientUnits="userSpaceOnUse">
			<stop  offset="0" style="stop-color:#FEF48F"/>
			<stop  offset="1" style="stop-color:#C49B2D"/>
		</radialGradient>
		<polygon fill="none" stroke="url(#SVGID_8_)" stroke-width="0.3762" stroke-miterlimit="10" points="40.769,70.443 19.031,86.883 
			22.311,86.883 40.72,71.84 		"/>
		
			<radialGradient id="SVGID_9_" cx="342.5996" cy="-220.9004" r="6.9084" gradientTransform="matrix(1 0 0 -1 -308.835 -140.5645)" gradientUnits="userSpaceOnUse">
			<stop  offset="0" style="stop-color:#FEF48F"/>
			<stop  offset="1" style="stop-color:#C49B2D"/>
		</radialGradient>
		<polygon fill="none" stroke="url(#SVGID_9_)" stroke-width="0.3762" stroke-miterlimit="10" points="40.638,74.057 27.158,86.883 
			30.805,86.883 40.576,75.695 		"/>
		
			<radialGradient id="SVGID_10_" cx="340.4209" cy="-220.0166" r="8.5139" gradientTransform="matrix(1 0 0 -1 -308.835 -140.5645)" gradientUnits="userSpaceOnUse">
			<stop  offset="0" style="stop-color:#FEF48F"/>
			<stop  offset="1" style="stop-color:#C49B2D"/>
		</radialGradient>
		<polygon fill="none" stroke="url(#SVGID_10_)" stroke-width="0.3762" stroke-miterlimit="10" points="40.706,72.242 22.79,86.883 
			26.718,86.883 40.654,73.619 		"/>
		
			<radialGradient id="SVGID_11_" cx="344.6152" cy="-221.9277" r="5.3595" gradientTransform="matrix(1 0 0 -1 -308.835 -140.5645)" gradientUnits="userSpaceOnUse">
			<stop  offset="0" style="stop-color:#FEF48F"/>
			<stop  offset="1" style="stop-color:#C49B2D"/>
		</radialGradient>
		<polygon fill="none" stroke="url(#SVGID_11_)" stroke-width="0.3762" stroke-miterlimit="10" points="40.56,76.18 31.206,86.883 
			33.548,86.883 40.513,77.414 		"/>
	</g>
	<g>
		<path fill="#CFA635" d="M22.208,97.52v4.283h1.041c0.201,0,0.358-0.014,0.474-0.045c0.115-0.029,0.229-0.102,0.341-0.217
			c0.112-0.115,0.198-0.252,0.259-0.412c0.061-0.158,0.126-0.379,0.195-0.664h0.163l-0.128,1.516h-3.897v-0.178h0.729V97.52h-0.729
			v-0.176h2.324v0.176H22.208z"/>
		<path fill="#CFA635" d="M28.922,97.52h-0.757v-0.176h1.656v0.176h-0.729v2.805c0,0.404-0.031,0.705-0.092,0.898
			s-0.172,0.355-0.333,0.488c-0.162,0.131-0.354,0.227-0.579,0.287c-0.225,0.059-0.457,0.09-0.697,0.09
			c-0.507,0-0.878-0.08-1.114-0.24c-0.235-0.158-0.379-0.354-0.434-0.586c-0.054-0.234-0.082-0.547-0.082-0.938V97.52h-0.67v-0.178
			h2.216v0.178h-0.729v2.725c0,0.375,0.017,0.67,0.052,0.885c0.035,0.215,0.128,0.393,0.28,0.537
			c0.152,0.143,0.393,0.213,0.723,0.213c0.268,0,0.507-0.055,0.719-0.164s0.36-0.256,0.444-0.439
			c0.084-0.186,0.126-0.527,0.126-1.029V97.52L28.922,97.52z"/>
		<path fill="#CFA635" d="M33.249,99.338l1.791,2.465h0.581v0.178H33.29v-0.178h0.792l-1.331-1.836l-1.452,1.836h0.906v0.178h-1.833
			v-0.178h0.702l1.556-1.984l-1.67-2.299h-0.588v-0.176h2.31v0.176h-0.764l1.21,1.656l1.317-1.656h-0.795v-0.176h1.681v0.176h-0.654
			L33.249,99.338z"/>
		<path fill="#CFA635" d="M40.061,97.52h-0.757v-0.176h1.656v0.176H40.23v2.805c0,0.404-0.031,0.705-0.092,0.898
			s-0.172,0.355-0.333,0.488c-0.162,0.131-0.354,0.227-0.579,0.287c-0.225,0.059-0.457,0.09-0.697,0.09
			c-0.507,0-0.878-0.08-1.114-0.24c-0.235-0.158-0.379-0.354-0.434-0.586c-0.054-0.234-0.082-0.547-0.082-0.938V97.52h-0.67v-0.178
			h2.216v0.178h-0.73v2.725c0,0.375,0.017,0.67,0.052,0.885s0.128,0.393,0.28,0.537c0.152,0.143,0.393,0.213,0.723,0.213
			c0.268,0,0.507-0.055,0.719-0.164c0.212-0.109,0.36-0.256,0.444-0.439c0.084-0.186,0.126-0.527,0.126-1.029L40.061,97.52
			L40.061,97.52z"/>
		<path fill="#CFA635" d="M42.4,101.803V97.52h-0.729v-0.176h2.542c0.332,0,0.604,0.027,0.818,0.086
			c0.213,0.057,0.397,0.178,0.551,0.357s0.231,0.389,0.231,0.625c0,0.293-0.113,0.529-0.338,0.711
			c-0.226,0.184-0.609,0.318-1.148,0.412v0.018c0.388,0.076,0.705,0.223,0.953,0.443c0.248,0.219,0.372,0.59,0.372,1.111
			c0,0.301,0.035,0.492,0.105,0.576c0.07,0.084,0.167,0.127,0.292,0.127c0.081,0,0.178-0.018,0.291-0.049v0.168
			c-0.201,0.07-0.394,0.105-0.581,0.105c-0.38,0-0.649-0.107-0.806-0.318c-0.157-0.213-0.233-0.42-0.228-0.623l0.014-0.588
			c0-0.205-0.065-0.408-0.195-0.607c-0.13-0.197-0.426-0.299-0.887-0.299h-0.432v2.203h0.729v0.176h-2.282v-0.176H42.4L42.4,101.803
			z M43.225,97.52v1.92h0.622c0.268,0,0.472-0.02,0.612-0.055s0.253-0.129,0.337-0.279s0.126-0.393,0.126-0.721
			c0-0.27-0.042-0.467-0.128-0.592c-0.085-0.125-0.188-0.201-0.309-0.23c-0.121-0.027-0.28-0.043-0.476-0.043H43.225L43.225,97.52z"
			/>
		<path fill="#CFA635" d="M46.264,97.344h2.316v0.176h-0.764l1.358,2.047l1.338-2.047h-0.84v-0.176h1.643v0.176h-0.602l-1.452,2.217
			v2.066h0.771v0.178h-2.379v-0.178h0.785v-1.945l-1.556-2.338h-0.619L46.264,97.344L46.264,97.344z"/>
	</g>
	<g>
		<g>
			<path fill="#CFA635" stroke="#CFA635" stroke-width="0.1881" stroke-miterlimit="10" d="M21.029,92.508
				c0.185,0,0.359-0.033,0.524-0.104c0.164-0.068,0.307-0.164,0.428-0.285s0.216-0.266,0.286-0.43
				c0.069-0.164,0.104-0.34,0.104-0.523s-0.035-0.359-0.104-0.523s-0.165-0.307-0.286-0.428s-0.264-0.217-0.428-0.285
				c-0.165-0.07-0.339-0.104-0.524-0.104h-1.809v-0.131h1.809c0.202,0,0.393,0.039,0.571,0.117c0.178,0.078,0.334,0.184,0.467,0.314
				c0.133,0.133,0.238,0.289,0.316,0.469c0.078,0.178,0.117,0.369,0.117,0.57c0,0.203-0.039,0.393-0.117,0.57
				c-0.078,0.18-0.183,0.336-0.316,0.469c-0.133,0.133-0.289,0.238-0.467,0.314c-0.179,0.078-0.369,0.117-0.571,0.117V92.508z
				 M19.351,95.754h-0.13v-6.061h0.13V95.754z M21.455,92.5c0.225,0,0.436,0.043,0.632,0.129c0.196,0.088,0.368,0.203,0.515,0.352
				c0.147,0.146,0.264,0.318,0.351,0.516c0.086,0.195,0.13,0.406,0.13,0.633c0,0.225-0.043,0.436-0.13,0.635
				s-0.204,0.373-0.351,0.521c-0.147,0.146-0.319,0.262-0.515,0.346c-0.196,0.084-0.407,0.125-0.632,0.125h-2.233v-0.139h2.233
				c0.208,0,0.402-0.039,0.584-0.115c0.182-0.078,0.341-0.188,0.476-0.32c0.136-0.137,0.243-0.293,0.32-0.473
				c0.078-0.18,0.117-0.373,0.117-0.58s-0.039-0.4-0.117-0.58c-0.078-0.178-0.185-0.336-0.32-0.471
				c-0.135-0.137-0.294-0.244-0.476-0.32c-0.182-0.078-0.376-0.117-0.584-0.117V92.5z M21.462,92.639h-2.242v-0.131h2.242V92.639z"
				/>
			<path fill="#CFA635" stroke="#CFA635" stroke-width="0.1881" stroke-miterlimit="10" d="M23.76,95.754v-6.061h0.13v6.061H23.76z
				 M23.76,89.824v-0.131h3.047v0.131H23.76z M23.76,92.785v-0.131h2.779v0.131H23.76z M23.76,95.754v-0.129h3.047v0.129H23.76z"/>
			<path fill="#CFA635" stroke="#CFA635" stroke-width="0.1881" stroke-miterlimit="10" d="M27.344,95.754v-6.061h0.13v6.061H27.344
				z M27.344,95.754v-0.129h3.047v0.129H27.344z"/>
			<path fill="#CFA635" stroke="#CFA635" stroke-width="0.1881" stroke-miterlimit="10" d="M33.056,95.754
				c-0.381,0-0.74-0.078-1.078-0.238c-0.338-0.158-0.632-0.375-0.883-0.648s-0.45-0.596-0.597-0.965s-0.221-0.762-0.221-1.178
				s0.074-0.809,0.221-1.178s0.346-0.689,0.597-0.965s0.545-0.49,0.883-0.648c0.337-0.158,0.697-0.238,1.078-0.238
				c0.427,0,0.833,0.102,1.22,0.305c0.185,0.098,0.365,0.229,0.541,0.393c0.176,0.164,0.331,0.336,0.463,0.516h-0.164
				c-0.254-0.352-0.557-0.621-0.909-0.811c-0.352-0.186-0.735-0.281-1.151-0.281c-0.364,0-0.707,0.078-1.03,0.23
				c-0.323,0.152-0.604,0.361-0.844,0.623c-0.24,0.262-0.429,0.57-0.567,0.926c-0.138,0.355-0.208,0.732-0.208,1.131
				c0,0.396,0.069,0.773,0.208,1.129c0.139,0.355,0.328,0.664,0.567,0.928c0.239,0.262,0.521,0.471,0.844,0.621
				c0.323,0.154,0.667,0.23,1.03,0.23c0.416,0,0.808-0.104,1.177-0.309c0.369-0.203,0.681-0.482,0.935-0.834l0.113,0.051
				c-0.133,0.18-0.287,0.352-0.463,0.516c-0.176,0.164-0.356,0.295-0.541,0.395C33.907,95.652,33.5,95.754,33.056,95.754z
				 M33.437,93.287v-0.129h1.844v0.129H33.437z M35.15,93.158h0.13v2.588h-0.13V93.158z"/>
			<path fill="#CFA635" stroke="#CFA635" stroke-width="0.1881" stroke-miterlimit="10" d="M36.098,92.639v-0.131h1.809
				c0.185,0,0.359-0.033,0.524-0.104c0.164-0.068,0.307-0.164,0.428-0.285s0.216-0.266,0.286-0.43
				c0.069-0.164,0.104-0.34,0.104-0.523s-0.035-0.359-0.104-0.523s-0.165-0.307-0.286-0.428s-0.264-0.217-0.428-0.285
				c-0.165-0.07-0.339-0.104-0.524-0.104h-1.809v-0.131h1.809c0.202,0,0.393,0.039,0.571,0.117s0.334,0.184,0.467,0.314
				c0.133,0.133,0.238,0.289,0.316,0.469c0.078,0.178,0.117,0.369,0.117,0.57c0,0.203-0.039,0.393-0.117,0.57
				c-0.078,0.18-0.183,0.336-0.316,0.469c-0.133,0.133-0.289,0.238-0.467,0.314c-0.179,0.078-0.369,0.117-0.571,0.117h-1.809V92.639
				z M36.228,95.754h-0.13v-6.061h0.13V95.754z M39.43,95.754l-1.653-3.143l0.121-0.068l1.662,3.211H39.43z"/>
			<path fill="#CFA635" stroke="#CFA635" stroke-width="0.1881" stroke-miterlimit="10" d="M44.875,95.754h-0.13l-2.25-5.877
				l-2.25,5.877h-0.13l2.311-6.061h0.139L44.875,95.754z M40.956,93.746v-0.129h3.073v0.129H40.956z"/>
			<path fill="#CFA635" stroke="#CFA635" stroke-width="0.1881" stroke-miterlimit="10" d="M47.202,89.824H45.41l-0.017-0.131h1.809
				V89.824z M45.41,89.693h0.13v6.061h-0.13V89.693z M47.209,95.754h-1.8v-0.129h1.8V95.754z M47.192,95.625
				c0.363,0,0.707-0.076,1.03-0.23c0.323-0.15,0.604-0.359,0.844-0.623c0.239-0.262,0.43-0.568,0.571-0.922
				c0.141-0.352,0.212-0.727,0.212-1.125c0-0.396-0.069-0.771-0.208-1.125c-0.139-0.352-0.329-0.66-0.571-0.922
				c-0.243-0.262-0.525-0.471-0.848-0.623c-0.324-0.152-0.667-0.229-1.03-0.229v-0.131c0.369,0,0.721,0.076,1.056,0.229
				c0.334,0.154,0.629,0.363,0.883,0.633c0.254,0.27,0.457,0.588,0.61,0.961c0.153,0.371,0.229,0.773,0.229,1.207
				c0,0.375-0.064,0.744-0.19,1.105c-0.127,0.359-0.311,0.684-0.55,0.969c-0.24,0.285-0.531,0.516-0.875,0.693
				c-0.343,0.176-0.731,0.264-1.164,0.264L47.192,95.625L47.192,95.625z"/>
			<path fill="#CFA635" stroke="#CFA635" stroke-width="0.1881" stroke-miterlimit="10" d="M50.684,95.754v-6.061h0.13v6.061H50.684
				z M50.684,89.824v-0.131h3.047v0.131H50.684z M50.684,92.785v-0.131h2.779v0.131H50.684z M50.684,95.754v-0.129h3.047v0.129
				H50.684z"/>
		</g>
	</g>
</g>
<g>
	<g>
		<path fill="none" stroke="#30AF4A" stroke-width="0.3904" stroke-miterlimit="10" d="M2.875,16.823h0.136l2.872,5.6H5.748
			L2.875,16.823z M2.875,22.422v-5.6h0.12v5.6H2.875z M5.765,22.422v-5.6h0.12v5.6H5.765z"/>
		<path fill="none" stroke="#30AF4A" stroke-width="0.3904" stroke-miterlimit="10" d="M6.714,22.422v-5.6h0.12v5.6H6.714z
			 M6.714,16.942v-0.12h2.816v0.12H6.714z M6.714,19.679v-0.12h2.568v0.12H6.714z M6.714,22.422v-0.12h2.816v0.12H6.714z"/>
		<path fill="none" stroke="#30AF4A" stroke-width="0.3904" stroke-miterlimit="10" d="M11.694,22.422h-0.128l-1.52-5.6h0.12
			l1.464,5.44l1.2-5.44h0.12L11.694,22.422z M13.19,22.422h-0.128l-1.52-5.6h0.12l1.464,5.44l1.2-5.44h0.12L13.19,22.422z"/>
		<path fill="none" stroke="#30AF4A" stroke-width="0.3904" stroke-miterlimit="10" d="M18.431,19.862h-0.12l-1.448-3.04h0.136
			l1.368,2.888l1.36-2.888h0.144L18.431,19.862z M18.311,22.422v-2.592h0.12v2.592H18.311z"/>
		<path fill="none" stroke="#30AF4A" stroke-width="0.3904" stroke-miterlimit="10" d="M20.388,22.422v-5.6h0.12v5.6H20.388z
			 M20.388,16.942v-0.12h2.816v0.12H20.388z M20.388,19.679v-0.12h2.568v0.12H20.388z M20.388,22.422v-0.12h2.816v0.12H20.388z"/>
		<path fill="none" stroke="#30AF4A" stroke-width="0.3904" stroke-miterlimit="10" d="M28.121,22.422H28l-2.08-5.432l-2.08,5.432
			h-0.12l2.136-5.6h0.128L28.121,22.422z M24.497,20.566v-0.12h2.84v0.12H24.497z"/>
		<path fill="none" stroke="#30AF4A" stroke-width="0.3904" stroke-miterlimit="10" d="M28.638,19.542v-0.12h1.672
			c0.171,0,0.332-0.032,0.484-0.096s0.284-0.152,0.396-0.264c0.112-0.112,0.2-0.244,0.264-0.396s0.096-0.313,0.096-0.484
			c0-0.17-0.032-0.332-0.096-0.484c-0.064-0.152-0.152-0.284-0.264-0.396c-0.112-0.112-0.244-0.2-0.396-0.264
			s-0.313-0.096-0.484-0.096h-1.672v-0.12h1.672c0.187,0,0.363,0.036,0.528,0.108c0.165,0.072,0.309,0.169,0.432,0.292
			s0.22,0.267,0.292,0.432c0.072,0.166,0.108,0.341,0.108,0.528s-0.036,0.363-0.108,0.528c-0.072,0.166-0.169,0.309-0.292,0.432
			s-0.267,0.22-0.432,0.292c-0.166,0.072-0.342,0.108-0.528,0.108H28.638L28.638,19.542z M28.757,22.422h-0.12v-5.6h0.12V22.422z
			 M31.718,22.422l-1.528-2.904l0.112-0.064l1.536,2.968H31.718z"/>
		<path fill="none" stroke="#30AF4A" stroke-width="0.3904" stroke-miterlimit="10" d="M36.43,22.422l-2.136-5.6h0.12l2.08,5.44
			l2.08-5.44h0.12l-2.136,5.6H36.43z"/>
		<path fill="none" stroke="#30AF4A" stroke-width="0.3904" stroke-miterlimit="10" d="M39.207,22.422v-5.6h0.12v5.6H39.207z"/>
		<path fill="none" stroke="#30AF4A" stroke-width="0.3904" stroke-miterlimit="10" d="M40.153,19.542l0.12-0.12h1.552
			c0.171,0,0.332-0.032,0.484-0.096s0.284-0.152,0.396-0.264s0.2-0.244,0.264-0.396s0.096-0.313,0.096-0.484
			c0-0.17-0.032-0.332-0.096-0.484c-0.064-0.152-0.152-0.284-0.264-0.396c-0.112-0.112-0.244-0.2-0.396-0.264
			s-0.313-0.096-0.484-0.096h-1.672v-0.12h1.672c0.187,0,0.363,0.036,0.528,0.108c0.165,0.072,0.309,0.169,0.432,0.292
			s0.22,0.267,0.292,0.432c0.072,0.166,0.108,0.341,0.108,0.528s-0.036,0.363-0.108,0.528c-0.072,0.166-0.169,0.309-0.292,0.432
			s-0.267,0.22-0.432,0.292c-0.166,0.072-0.342,0.108-0.528,0.108H40.153L40.153,19.542z M40.273,22.422h-0.12v-5.6h0.12V22.422z"/>
		<path fill="none" stroke="#30AF4A" stroke-width="0.3904" stroke-miterlimit="10" d="M45.602,22.422v-5.6h0.12v5.6H45.602z
			 M45.602,22.422v-0.12h2.816v0.12H45.602z"/>
		<path fill="none" stroke="#30AF4A" stroke-width="0.3904" stroke-miterlimit="10" d="M48.768,20.918h-0.12v-4.096h0.12V20.918z
			 M51.654,20.918c0,0.208-0.04,0.403-0.12,0.584s-0.188,0.341-0.324,0.48c-0.136,0.139-0.295,0.248-0.476,0.328
			c-0.181,0.08-0.376,0.12-0.584,0.12s-0.403-0.04-0.584-0.12c-0.181-0.08-0.34-0.189-0.476-0.328
			c-0.136-0.139-0.244-0.299-0.324-0.48s-0.12-0.376-0.12-0.584h0.12c0,0.192,0.036,0.372,0.108,0.54
			c0.072,0.168,0.17,0.316,0.296,0.444c0.126,0.128,0.272,0.228,0.44,0.3c0.168,0.072,0.348,0.108,0.54,0.108
			c0.192,0,0.372-0.036,0.54-0.108c0.168-0.072,0.314-0.172,0.44-0.3c0.126-0.128,0.224-0.276,0.296-0.444
			c0.072-0.168,0.108-0.348,0.108-0.54H51.654z M51.654,20.918h-0.12v-4.096h0.12V20.918z"/>
		<path fill="none" stroke="#30AF4A" stroke-width="0.3904" stroke-miterlimit="10" d="M52.171,16.823h0.136l2.872,5.6h-0.136
			L52.171,16.823z M52.309,22.422h-0.136l2.872-5.6h0.136L52.309,22.422z"/>
		<path fill="none" stroke="#30AF4A" stroke-width="0.3904" stroke-miterlimit="10" d="M55.816,20.918h-0.12v-4.096h0.12V20.918z
			 M58.705,20.918c0,0.208-0.04,0.403-0.12,0.584s-0.188,0.341-0.324,0.48c-0.136,0.139-0.295,0.248-0.476,0.328
			c-0.181,0.08-0.376,0.12-0.584,0.12s-0.403-0.04-0.584-0.12c-0.181-0.08-0.34-0.189-0.476-0.328
			c-0.136-0.139-0.244-0.299-0.324-0.48s-0.12-0.376-0.12-0.584h0.12c0,0.192,0.036,0.372,0.108,0.54
			c0.072,0.168,0.17,0.316,0.296,0.444c0.126,0.128,0.272,0.228,0.44,0.3c0.168,0.072,0.348,0.108,0.54,0.108
			s0.372-0.036,0.54-0.108c0.168-0.072,0.314-0.172,0.44-0.3c0.126-0.128,0.224-0.276,0.296-0.444s0.108-0.348,0.108-0.54H58.705z
			 M58.705,20.918h-0.12v-4.096h0.12V20.918z"/>
		<path fill="none" stroke="#30AF4A" stroke-width="0.3904" stroke-miterlimit="10" d="M59.529,19.542v-0.12h1.672
			c0.171,0,0.332-0.032,0.484-0.096s0.284-0.152,0.396-0.264s0.2-0.244,0.264-0.396s0.096-0.313,0.096-0.484
			c0-0.17-0.032-0.332-0.096-0.484c-0.064-0.152-0.152-0.284-0.264-0.396c-0.112-0.112-0.244-0.2-0.396-0.264
			s-0.313-0.096-0.484-0.096h-1.672v-0.12h1.672c0.187,0,0.363,0.036,0.528,0.108c0.165,0.072,0.309,0.169,0.432,0.292
			s0.22,0.267,0.292,0.432c0.072,0.166,0.108,0.341,0.108,0.528s-0.036,0.363-0.108,0.528c-0.072,0.166-0.169,0.309-0.292,0.432
			s-0.267,0.22-0.432,0.292c-0.166,0.072-0.342,0.108-0.528,0.108H59.529L59.529,19.542z M59.649,22.422h-0.12v-5.6h0.12V22.422z
			 M62.609,22.422l-1.528-2.904l0.112-0.064l1.536,2.968H62.609z"/>
		<path fill="none" stroke="#30AF4A" stroke-width="0.3904" stroke-miterlimit="10" d="M64.556,19.862h-0.12l-1.448-3.04h0.136
			l1.368,2.888l1.36-2.888h0.144L64.556,19.862z M64.436,22.422v-2.592h0.12v2.592H64.436z"/>
		<path fill="none" stroke="#30AF4A" stroke-width="0.3904" stroke-miterlimit="10" d="M68.412,19.542l0.12-0.12h1.552
			c0.171,0,0.332-0.032,0.484-0.096c0.152-0.064,0.284-0.152,0.396-0.264c0.112-0.112,0.2-0.244,0.264-0.396
			s0.096-0.313,0.096-0.484c0-0.17-0.032-0.332-0.096-0.484c-0.064-0.152-0.152-0.284-0.264-0.396
			c-0.112-0.112-0.244-0.2-0.396-0.264c-0.152-0.064-0.313-0.096-0.484-0.096h-1.672v-0.12h1.672c0.187,0,0.363,0.036,0.528,0.108
			c0.165,0.072,0.309,0.169,0.432,0.292s0.22,0.267,0.292,0.432c0.072,0.166,0.108,0.341,0.108,0.528s-0.036,0.363-0.108,0.528
			c-0.072,0.166-0.169,0.309-0.292,0.432s-0.267,0.22-0.432,0.292c-0.166,0.072-0.342,0.108-0.528,0.108H68.412L68.412,19.542z
			 M68.532,22.422h-0.12v-5.6h0.12V22.422z"/>
		<path fill="none" stroke="#30AF4A" stroke-width="0.3904" stroke-miterlimit="10" d="M75.7,22.422h-0.12l-2.08-5.432l-2.08,5.432
			H71.3l2.136-5.6h0.128L75.7,22.422z M72.076,20.566v-0.12h2.84v0.12H72.076z"/>
		<path fill="none" stroke="#30AF4A" stroke-width="0.3904" stroke-miterlimit="10" d="M78.436,22.422
			c-0.352,0-0.684-0.073-0.996-0.22c-0.312-0.146-0.584-0.346-0.816-0.6s-0.416-0.551-0.552-0.892
			c-0.136-0.341-0.204-0.704-0.204-1.088s0.068-0.747,0.204-1.088c0.136-0.341,0.32-0.639,0.552-0.892s0.504-0.454,0.816-0.6
			c0.312-0.147,0.644-0.22,0.996-0.22c0.395,0,0.771,0.093,1.128,0.28c0.171,0.09,0.337,0.212,0.5,0.364
			c0.163,0.152,0.306,0.311,0.428,0.476h-0.152c-0.235-0.325-0.515-0.575-0.84-0.748c-0.325-0.173-0.68-0.26-1.064-0.26
			c-0.336,0-0.653,0.07-0.952,0.212c-0.299,0.141-0.559,0.333-0.78,0.576c-0.221,0.243-0.396,0.528-0.524,0.856
			s-0.192,0.676-0.192,1.044s0.064,0.716,0.192,1.044s0.303,0.613,0.524,0.856s0.481,0.435,0.78,0.576
			c0.298,0.142,0.616,0.212,0.952,0.212c0.384,0,0.739-0.087,1.064-0.26c0.325-0.173,0.605-0.422,0.84-0.748h0.152
			c-0.123,0.166-0.266,0.324-0.428,0.476c-0.162,0.152-0.329,0.273-0.5,0.364C79.223,22.33,78.847,22.422,78.436,22.422z"/>
		<path fill="none" stroke="#30AF4A" stroke-width="0.3904" stroke-miterlimit="10" d="M81.067,22.422v-5.6h0.12v5.6H81.067z
			 M81.083,19.871l2.832-3.048h0.16l-2.912,3.128L81.083,19.871z M81.939,19.006l0.096-0.064l2.04,3.48h-0.136L81.939,19.006z"/>
		<path fill="none" stroke="#30AF4A" stroke-width="0.3904" stroke-miterlimit="10" d="M88.992,22.422h-0.119l-2.081-5.432
			l-2.08,5.432h-0.12l2.136-5.6h0.128L88.992,22.422z M85.369,20.566v-0.12h2.84v0.12H85.369z"/>
		<path fill="none" stroke="#30AF4A" stroke-width="0.3904" stroke-miterlimit="10" d="M91.729,22.422
			c-0.352,0-0.684-0.073-0.996-0.22c-0.313-0.146-0.584-0.346-0.816-0.6c-0.23-0.253-0.416-0.551-0.551-0.892
			c-0.137-0.341-0.205-0.704-0.205-1.088s0.068-0.747,0.205-1.088c0.135-0.341,0.32-0.639,0.551-0.892
			c0.232-0.253,0.504-0.454,0.816-0.6c0.313-0.147,0.645-0.22,0.996-0.22c0.395,0,0.771,0.093,1.129,0.28
			c0.17,0.09,0.336,0.212,0.5,0.364c0.162,0.152,0.305,0.311,0.428,0.476h-0.15c-0.234-0.325-0.518-0.575-0.842-0.748
			c-0.324-0.173-0.68-0.26-1.063-0.26c-0.336,0-0.654,0.07-0.951,0.212c-0.299,0.141-0.561,0.333-0.781,0.576
			c-0.221,0.243-0.396,0.528-0.523,0.856s-0.191,0.676-0.191,1.044s0.064,0.716,0.191,1.044c0.129,0.328,0.303,0.613,0.523,0.856
			c0.223,0.243,0.482,0.435,0.781,0.576c0.297,0.142,0.615,0.212,0.951,0.212c0.385,0,0.746-0.095,1.088-0.284
			s0.629-0.447,0.863-0.772l0.104,0.048c-0.123,0.166-0.266,0.324-0.428,0.476c-0.164,0.152-0.33,0.273-0.5,0.364
			C92.516,22.33,92.139,22.422,91.729,22.422z M92.08,20.143v-0.12h1.705v0.12H92.08z M93.664,20.022h0.121v2.392h-0.121V20.022z"/>
		<path fill="none" stroke="#30AF4A" stroke-width="0.3904" stroke-miterlimit="10" d="M94.559,22.422v-5.6h0.121v5.6H94.559z
			 M94.559,16.942v-0.12h2.816v0.12H94.559z M94.559,19.679v-0.12h2.568v0.12H94.559z M94.559,22.422v-0.12h2.816v0.12H94.559z"/>
	</g>
</g>
<line fill="none" stroke="#30AF4A" stroke-width="0.5" stroke-miterlimit="10" x1="0.119" y1="24.702" x2="103.926" y2="24.702"/>
<g>
	<g>
		<defs>
			<rect id="SVGID_12_" x="0.119" y="0.104" width="174.092" height="108.924"/>
		</defs>
		<clipPath id="SVGID_13_">
			<use xlink:href="#SVGID_12_"  overflow="visible"/>
		</clipPath>
		
			<line clip-path="url(#SVGID_13_)" fill="none" stroke="#30AF4A" stroke-width="0.4874" stroke-miterlimit="10" x1="85.266" y1="0.104" x2="168.979" y2="111.537"/>
	</g>
	<g>
		<defs>
			<rect id="SVGID_14_" x="0.119" y="0.104" width="174.092" height="108.924"/>
		</defs>
		<clipPath id="SVGID_15_">
			<use xlink:href="#SVGID_14_"  overflow="visible"/>
		</clipPath>
		
			<line opacity="0.9" clip-path="url(#SVGID_15_)" fill="none" stroke="#30AF4A" stroke-width="0.4874" stroke-miterlimit="10" enable-background="new    " x1="89.5" y1="0.104" x2="173.211" y2="111.537"/>
	</g>
	<g>
		<defs>
			<rect id="SVGID_16_" x="0.119" y="0.104" width="174.092" height="108.924"/>
		</defs>
		<clipPath id="SVGID_17_">
			<use xlink:href="#SVGID_16_"  overflow="visible"/>
		</clipPath>
		
			<line opacity="0.8" clip-path="url(#SVGID_17_)" fill="none" stroke="#30AF4A" stroke-width="0.4874" stroke-miterlimit="10" enable-background="new    " x1="93.734" y1="0.104" x2="177.447" y2="111.537"/>
	</g>
	<g>
		<defs>
			<rect id="SVGID_18_" x="0.119" y="0.104" width="174.092" height="108.924"/>
		</defs>
		<clipPath id="SVGID_19_">
			<use xlink:href="#SVGID_18_"  overflow="visible"/>
		</clipPath>
		
			<line opacity="0.7" clip-path="url(#SVGID_19_)" fill="none" stroke="#30AF4A" stroke-width="0.4874" stroke-miterlimit="10" enable-background="new    " x1="97.969" y1="0.104" x2="181.682" y2="111.537"/>
	</g>
	<g>
		<defs>
			<rect id="SVGID_20_" x="0.119" y="0.104" width="174.092" height="108.924"/>
		</defs>
		<clipPath id="SVGID_21_">
			<use xlink:href="#SVGID_20_"  overflow="visible"/>
		</clipPath>
		
			<line opacity="0.6" clip-path="url(#SVGID_21_)" fill="none" stroke="#30AF4A" stroke-width="0.4874" stroke-miterlimit="10" enable-background="new    " x1="102.203" y1="0.104" x2="185.914" y2="111.537"/>
	</g>
	<g>
		<defs>
			<rect id="SVGID_22_" x="0.119" y="0.104" width="174.092" height="108.924"/>
		</defs>
		<clipPath id="SVGID_23_">
			<use xlink:href="#SVGID_22_"  overflow="visible"/>
		</clipPath>
		
			<line opacity="0.5" clip-path="url(#SVGID_23_)" fill="none" stroke="#30AF4A" stroke-width="0.4874" stroke-miterlimit="10" enable-background="new    " x1="106.439" y1="0.104" x2="190.152" y2="111.537"/>
	</g>
	<g>
		<defs>
			<rect id="SVGID_24_" x="0.119" y="0.104" width="174.092" height="108.924"/>
		</defs>
		<clipPath id="SVGID_25_">
			<use xlink:href="#SVGID_24_"  overflow="visible"/>
		</clipPath>
		
			<line opacity="0.4" clip-path="url(#SVGID_25_)" fill="none" stroke="#30AF4A" stroke-width="0.4874" stroke-miterlimit="10" enable-background="new    " x1="110.672" y1="0.104" x2="194.387" y2="111.537"/>
	</g>
	<g>
		<defs>
			<rect id="SVGID_26_" x="0.119" y="0.104" width="174.092" height="108.924"/>
		</defs>
		<clipPath id="SVGID_27_">
			<use xlink:href="#SVGID_26_"  overflow="visible"/>
		</clipPath>
		
			<line opacity="0.3" clip-path="url(#SVGID_27_)" fill="none" stroke="#30AF4A" stroke-width="0.4874" stroke-miterlimit="10" enable-background="new    " x1="114.908" y1="0.104" x2="198.621" y2="111.537"/>
	</g>
	<g>
		<defs>
			<rect id="SVGID_28_" x="0.119" y="0.104" width="174.092" height="108.924"/>
		</defs>
		<clipPath id="SVGID_29_">
			<use xlink:href="#SVGID_28_"  overflow="visible"/>
		</clipPath>
		
			<line opacity="0.2" clip-path="url(#SVGID_29_)" fill="none" stroke="#30AF4A" stroke-width="0.4874" stroke-miterlimit="10" enable-background="new    " x1="119.143" y1="0.104" x2="202.855" y2="111.537"/>
	</g>
	<g>
		<defs>
			<rect id="SVGID_30_" x="0.119" y="0.104" width="174.092" height="108.924"/>
		</defs>
		<clipPath id="SVGID_31_">
			<use xlink:href="#SVGID_30_"  overflow="visible"/>
		</clipPath>
		
			<line opacity="0.9" clip-path="url(#SVGID_31_)" fill="none" stroke="#30AF4A" stroke-width="0.4874" stroke-miterlimit="10" enable-background="new    " x1="78.678" y1="118.654" x2="178.26" y2="21.144"/>
	</g>
	<g>
		<defs>
			<rect id="SVGID_32_" x="0.119" y="0.104" width="174.092" height="108.924"/>
		</defs>
		<clipPath id="SVGID_33_">
			<use xlink:href="#SVGID_32_"  overflow="visible"/>
		</clipPath>
		
			<line opacity="0.8" clip-path="url(#SVGID_33_)" fill="none" stroke="#30AF4A" stroke-width="0.4874" stroke-miterlimit="10" enable-background="new    " x1="82.864" y1="119.295" x2="182.445" y2="21.783"/>
	</g>
	<g>
		<defs>
			<rect id="SVGID_34_" x="0.119" y="0.104" width="174.092" height="108.924"/>
		</defs>
		<clipPath id="SVGID_35_">
			<use xlink:href="#SVGID_34_"  overflow="visible"/>
		</clipPath>
		
			<line opacity="0.7" clip-path="url(#SVGID_35_)" fill="none" stroke="#30AF4A" stroke-width="0.4874" stroke-miterlimit="10" enable-background="new    " x1="87.049" y1="119.934" x2="186.629" y2="22.422"/>
	</g>
	<g>
		<defs>
			<rect id="SVGID_36_" x="0.119" y="0.104" width="174.092" height="108.924"/>
		</defs>
		<clipPath id="SVGID_37_">
			<use xlink:href="#SVGID_36_"  overflow="visible"/>
		</clipPath>
		
			<line opacity="0.6" clip-path="url(#SVGID_37_)" fill="none" stroke="#30AF4A" stroke-width="0.4874" stroke-miterlimit="10" enable-background="new    " x1="91.234" y1="120.574" x2="190.818" y2="23.062"/>
	</g>
	<g>
		<defs>
			<rect id="SVGID_38_" x="0.119" y="0.104" width="174.092" height="108.924"/>
		</defs>
		<clipPath id="SVGID_39_">
			<use xlink:href="#SVGID_38_"  overflow="visible"/>
		</clipPath>
		
			<line opacity="0.5" clip-path="url(#SVGID_39_)" fill="none" stroke="#30AF4A" stroke-width="0.4874" stroke-miterlimit="10" enable-background="new    " x1="95.42" y1="121.213" x2="195.002" y2="23.702"/>
	</g>
	<g>
		<defs>
			<rect id="SVGID_40_" x="0.119" y="0.104" width="174.092" height="108.924"/>
		</defs>
		<clipPath id="SVGID_41_">
			<use xlink:href="#SVGID_40_"  overflow="visible"/>
		</clipPath>
		
			<line opacity="0.4" clip-path="url(#SVGID_41_)" fill="none" stroke="#30AF4A" stroke-width="0.4874" stroke-miterlimit="10" enable-background="new    " x1="99.607" y1="121.854" x2="199.189" y2="24.34"/>
	</g>
	<g>
		<defs>
			<rect id="SVGID_42_" x="0.119" y="0.104" width="174.092" height="108.924"/>
		</defs>
		<clipPath id="SVGID_43_">
			<use xlink:href="#SVGID_42_"  overflow="visible"/>
		</clipPath>
		
			<line opacity="0.3" clip-path="url(#SVGID_43_)" fill="none" stroke="#30AF4A" stroke-width="0.4874" stroke-miterlimit="10" enable-background="new    " x1="103.793" y1="122.492" x2="203.375" y2="24.98"/>
	</g>
	<g>
		<defs>
			<rect id="SVGID_44_" x="0.119" y="0.104" width="174.092" height="108.924"/>
		</defs>
		<clipPath id="SVGID_45_">
			<use xlink:href="#SVGID_44_"  overflow="visible"/>
		</clipPath>
		
			<line opacity="0.2" clip-path="url(#SVGID_45_)" fill="none" stroke="#30AF4A" stroke-width="0.4874" stroke-miterlimit="10" enable-background="new    " x1="107.979" y1="123.131" x2="207.563" y2="25.621"/>
	</g>
</g>
<g>
</g>
<g>
</g>
<g>
</g>
<g>
</g>
<g>
</g>
<g>
</g>
</svg>
