<?xml version="1.0" encoding="utf-8"?>
<!-- Generator: Adobe Illustrator 16.0.0, SVG Export Plug-In . SVG Version: 6.00 Build 0)  -->
<!DOCTYPE svg PUBLIC "-//W3C//DTD SVG 1.1//EN" "http://www.w3.org/Graphics/SVG/1.1/DTD/svg11.dtd">
<svg version="1.1" id="Layer_1" xmlns="http://www.w3.org/2000/svg" xmlns:xlink="http://www.w3.org/1999/xlink" x="0px" y="0px"
	 width="174.33px" height="109.13px" viewBox="0 0 174.33 109.13" enable-background="new 0 0 174.33 109.13" xml:space="preserve">
<g>
	<g>
		<rect id="SVGID_1_" x="0.12" y="0.103" fill="#010101" width="174.091" height="108.924"/>
	</g>
	<g>
		<defs>
			<rect id="SVGID_2_" x="0.12" y="0.103" width="174.091" height="108.924"/>
		</defs>
		<clipPath id="SVGID_3_">
			<use xlink:href="#SVGID_2_"  overflow="visible"/>
		</clipPath>
		
			<line clip-path="url(#SVGID_3_)" fill="none" stroke="#CFA635" stroke-width="0.4874" stroke-miterlimit="10" x1="85.266" y1="0.103" x2="168.979" y2="111.535"/>
	</g>
	<g>
		<defs>
			<rect id="SVGID_4_" x="0.12" y="0.103" width="174.091" height="108.924"/>
		</defs>
		<clipPath id="SVGID_5_">
			<use xlink:href="#SVGID_4_"  overflow="visible"/>
		</clipPath>
		
			<line opacity="0.9" clip-path="url(#SVGID_5_)" fill="none" stroke="#CFA635" stroke-width="0.4874" stroke-miterlimit="10" enable-background="new    " x1="89.5" y1="0.103" x2="173.211" y2="111.535"/>
	</g>
	<g>
		<defs>
			<rect id="SVGID_6_" x="0.12" y="0.103" width="174.091" height="108.924"/>
		</defs>
		<clipPath id="SVGID_7_">
			<use xlink:href="#SVGID_6_"  overflow="visible"/>
		</clipPath>
		
			<line opacity="0.8" clip-path="url(#SVGID_7_)" fill="none" stroke="#CFA635" stroke-width="0.4874" stroke-miterlimit="10" enable-background="new    " x1="93.734" y1="0.103" x2="177.447" y2="111.535"/>
	</g>
	<g>
		<defs>
			<rect id="SVGID_8_" x="0.12" y="0.103" width="174.091" height="108.924"/>
		</defs>
		<clipPath id="SVGID_9_">
			<use xlink:href="#SVGID_8_"  overflow="visible"/>
		</clipPath>
		
			<line opacity="0.7" clip-path="url(#SVGID_9_)" fill="none" stroke="#CFA635" stroke-width="0.4874" stroke-miterlimit="10" enable-background="new    " x1="97.969" y1="0.103" x2="181.682" y2="111.535"/>
	</g>
	<g>
		<defs>
			<rect id="SVGID_10_" x="0.12" y="0.103" width="174.091" height="108.924"/>
		</defs>
		<clipPath id="SVGID_11_">
			<use xlink:href="#SVGID_10_"  overflow="visible"/>
		</clipPath>
		
			<line opacity="0.6" clip-path="url(#SVGID_11_)" fill="none" stroke="#CFA635" stroke-width="0.4874" stroke-miterlimit="10" enable-background="new    " x1="102.203" y1="0.103" x2="185.914" y2="111.535"/>
	</g>
	<g>
		<defs>
			<rect id="SVGID_12_" x="0.12" y="0.103" width="174.091" height="108.924"/>
		</defs>
		<clipPath id="SVGID_13_">
			<use xlink:href="#SVGID_12_"  overflow="visible"/>
		</clipPath>
		
			<line opacity="0.5" clip-path="url(#SVGID_13_)" fill="none" stroke="#CFA635" stroke-width="0.4874" stroke-miterlimit="10" enable-background="new    " x1="106.439" y1="0.103" x2="190.152" y2="111.535"/>
	</g>
	<g>
		<defs>
			<rect id="SVGID_14_" x="0.12" y="0.103" width="174.091" height="108.924"/>
		</defs>
		<clipPath id="SVGID_15_">
			<use xlink:href="#SVGID_14_"  overflow="visible"/>
		</clipPath>
		
			<line opacity="0.4" clip-path="url(#SVGID_15_)" fill="none" stroke="#CFA635" stroke-width="0.4874" stroke-miterlimit="10" enable-background="new    " x1="110.672" y1="0.103" x2="194.387" y2="111.535"/>
	</g>
	<g>
		<defs>
			<rect id="SVGID_16_" x="0.12" y="0.103" width="174.091" height="108.924"/>
		</defs>
		<clipPath id="SVGID_17_">
			<use xlink:href="#SVGID_16_"  overflow="visible"/>
		</clipPath>
		
			<line opacity="0.3" clip-path="url(#SVGID_17_)" fill="none" stroke="#CFA635" stroke-width="0.4874" stroke-miterlimit="10" enable-background="new    " x1="114.908" y1="0.103" x2="198.621" y2="111.535"/>
	</g>
	<g>
		<defs>
			<rect id="SVGID_18_" x="0.12" y="0.103" width="174.091" height="108.924"/>
		</defs>
		<clipPath id="SVGID_19_">
			<use xlink:href="#SVGID_18_"  overflow="visible"/>
		</clipPath>
		
			<line opacity="0.2" clip-path="url(#SVGID_19_)" fill="none" stroke="#CFA635" stroke-width="0.4874" stroke-miterlimit="10" enable-background="new    " x1="119.143" y1="0.103" x2="202.855" y2="111.535"/>
	</g>
	<g>
		<defs>
			<rect id="SVGID_20_" x="0.12" y="0.103" width="174.091" height="108.924"/>
		</defs>
		<clipPath id="SVGID_21_">
			<use xlink:href="#SVGID_20_"  overflow="visible"/>
		</clipPath>
		
			<line opacity="0.9" clip-path="url(#SVGID_21_)" fill="none" stroke="#CFA635" stroke-width="0.4874" stroke-miterlimit="10" enable-background="new    " x1="78.678" y1="118.652" x2="178.258" y2="21.143"/>
	</g>
	<g>
		<defs>
			<rect id="SVGID_22_" x="0.12" y="0.103" width="174.091" height="108.924"/>
		</defs>
		<clipPath id="SVGID_23_">
			<use xlink:href="#SVGID_22_"  overflow="visible"/>
		</clipPath>
		
			<line opacity="0.8" clip-path="url(#SVGID_23_)" fill="none" stroke="#CFA635" stroke-width="0.4874" stroke-miterlimit="10" enable-background="new    " x1="82.864" y1="119.293" x2="182.445" y2="21.782"/>
	</g>
	<g>
		<defs>
			<rect id="SVGID_24_" x="0.12" y="0.103" width="174.091" height="108.924"/>
		</defs>
		<clipPath id="SVGID_25_">
			<use xlink:href="#SVGID_24_"  overflow="visible"/>
		</clipPath>
		
			<line opacity="0.7" clip-path="url(#SVGID_25_)" fill="none" stroke="#CFA635" stroke-width="0.4874" stroke-miterlimit="10" enable-background="new    " x1="87.049" y1="119.932" x2="186.629" y2="22.422"/>
	</g>
	<g>
		<defs>
			<rect id="SVGID_26_" x="0.12" y="0.103" width="174.091" height="108.924"/>
		</defs>
		<clipPath id="SVGID_27_">
			<use xlink:href="#SVGID_26_"  overflow="visible"/>
		</clipPath>
		
			<line opacity="0.6" clip-path="url(#SVGID_27_)" fill="none" stroke="#CFA635" stroke-width="0.4874" stroke-miterlimit="10" enable-background="new    " x1="91.234" y1="120.572" x2="190.818" y2="23.061"/>
	</g>
	<g>
		<defs>
			<rect id="SVGID_28_" x="0.12" y="0.103" width="174.091" height="108.924"/>
		</defs>
		<clipPath id="SVGID_29_">
			<use xlink:href="#SVGID_28_"  overflow="visible"/>
		</clipPath>
		
			<line opacity="0.5" clip-path="url(#SVGID_29_)" fill="none" stroke="#CFA635" stroke-width="0.4874" stroke-miterlimit="10" enable-background="new    " x1="95.42" y1="121.211" x2="195.002" y2="23.701"/>
	</g>
	<g>
		<defs>
			<rect id="SVGID_30_" x="0.12" y="0.103" width="174.091" height="108.924"/>
		</defs>
		<clipPath id="SVGID_31_">
			<use xlink:href="#SVGID_30_"  overflow="visible"/>
		</clipPath>
		
			<line opacity="0.4" clip-path="url(#SVGID_31_)" fill="none" stroke="#CFA635" stroke-width="0.4874" stroke-miterlimit="10" enable-background="new    " x1="99.607" y1="121.852" x2="199.189" y2="24.34"/>
	</g>
	<g>
		<defs>
			<rect id="SVGID_32_" x="0.12" y="0.103" width="174.091" height="108.924"/>
		</defs>
		<clipPath id="SVGID_33_">
			<use xlink:href="#SVGID_32_"  overflow="visible"/>
		</clipPath>
		
			<line opacity="0.3" clip-path="url(#SVGID_33_)" fill="none" stroke="#CFA635" stroke-width="0.4874" stroke-miterlimit="10" enable-background="new    " x1="103.793" y1="122.49" x2="203.375" y2="24.98"/>
	</g>
	<g>
		<defs>
			<rect id="SVGID_34_" x="0.12" y="0.103" width="174.091" height="108.924"/>
		</defs>
		<clipPath id="SVGID_35_">
			<use xlink:href="#SVGID_34_"  overflow="visible"/>
		</clipPath>
		
			<line opacity="0.2" clip-path="url(#SVGID_35_)" fill="none" stroke="#CFA635" stroke-width="0.4874" stroke-miterlimit="10" enable-background="new    " x1="107.979" y1="123.129" x2="207.563" y2="25.62"/>
	</g>
</g>
<g>
	<g>
		
			<radialGradient id="SVGID_36_" cx="198.5859" cy="-214.6387" r="21.5433" gradientTransform="matrix(1 0 0 -1 -164.2695 -143.7305)" gradientUnits="userSpaceOnUse">
			<stop  offset="0" style="stop-color:#FEF48F"/>
			<stop  offset="1" style="stop-color:#C49B2D"/>
		</radialGradient>
		<polygon fill="none" stroke="url(#SVGID_36_)" stroke-width="0.3762" stroke-miterlimit="10" points="18.527,86.881 
			40.787,70.053 40.956,65.502 41.125,70.061 57.804,82.672 59.895,80.576 40.708,55.015 8.771,80.576 15.075,86.881 		"/>
		
			<radialGradient id="SVGID_37_" cx="213.6729" cy="-220.9824" r="7.8532" gradientTransform="matrix(1 0 0 -1 -164.2695 -143.7305)" gradientUnits="userSpaceOnUse">
			<stop  offset="0" style="stop-color:#FEF48F"/>
			<stop  offset="1" style="stop-color:#C49B2D"/>
		</radialGradient>
		<polygon fill="none" stroke="url(#SVGID_37_)" stroke-width="0.3762" stroke-miterlimit="10" points="41.188,71.848 
			56.289,84.186 57.584,82.889 41.138,70.453 		"/>
		
			<radialGradient id="SVGID_38_" cx="212.9473" cy="-222.834" r="7.4735" gradientTransform="matrix(1 0 0 -1 -164.2695 -143.7305)" gradientUnits="userSpaceOnUse">
			<stop  offset="0" style="stop-color:#FEF48F"/>
			<stop  offset="1" style="stop-color:#C49B2D"/>
		</radialGradient>
		<polygon fill="none" stroke="url(#SVGID_38_)" stroke-width="0.3762" stroke-miterlimit="10" points="54.367,86.105 
			56.074,84.402 41.204,72.248 41.254,73.631 		"/>
		
			<radialGradient id="SVGID_39_" cx="210.3926" cy="-225.0991" r="5.3536" gradientTransform="matrix(1 0 0 -1 -164.2695 -143.7305)" gradientUnits="userSpaceOnUse">
			<stop  offset="0" style="stop-color:#FEF48F"/>
			<stop  offset="1" style="stop-color:#C49B2D"/>
		</radialGradient>
		<polygon fill="none" stroke="url(#SVGID_39_)" stroke-width="0.3762" stroke-miterlimit="10" points="50.69,86.881 41.35,76.191 
			41.396,77.434 48.349,86.881 		"/>
		
			<radialGradient id="SVGID_40_" cx="209.0459" cy="-225.9487" r="4.2591" gradientTransform="matrix(1 0 0 -1 -164.2695 -143.7305)" gradientUnits="userSpaceOnUse">
			<stop  offset="0" style="stop-color:#FEF48F"/>
			<stop  offset="1" style="stop-color:#C49B2D"/>
		</radialGradient>
		<polygon fill="none" stroke="url(#SVGID_40_)" stroke-width="0.3762" stroke-miterlimit="10" points="47.974,86.881 
			41.416,77.971 41.745,86.881 		"/>
		
			<radialGradient id="SVGID_41_" cx="212.0137" cy="-224.0713" r="6.7032" gradientTransform="matrix(1 0 0 -1 -164.2695 -143.7305)" gradientUnits="userSpaceOnUse">
			<stop  offset="0" style="stop-color:#FEF48F"/>
			<stop  offset="1" style="stop-color:#C49B2D"/>
		</radialGradient>
		<polygon fill="none" stroke="url(#SVGID_41_)" stroke-width="0.3762" stroke-miterlimit="10" points="53.594,86.881 54.151,86.32 
			41.271,74.066 41.331,75.709 51.091,86.881 		"/>
		
			<radialGradient id="SVGID_42_" cx="201.3984" cy="-225.9409" r="4.2657" gradientTransform="matrix(1 0 0 -1 -164.2695 -143.7305)" gradientUnits="userSpaceOnUse">
			<stop  offset="0" style="stop-color:#FEF48F"/>
			<stop  offset="1" style="stop-color:#C49B2D"/>
		</radialGradient>
		<polygon fill="none" stroke="url(#SVGID_42_)" stroke-width="0.3762" stroke-miterlimit="10" points="40.494,77.955 
			33.924,86.881 40.166,86.881 		"/>
		
			<radialGradient id="SVGID_43_" cx="193.9912" cy="-222.2925" r="9.9732" gradientTransform="matrix(1 0 0 -1 -164.2695 -143.7305)" gradientUnits="userSpaceOnUse">
			<stop  offset="0" style="stop-color:#FEF48F"/>
			<stop  offset="1" style="stop-color:#C49B2D"/>
		</radialGradient>
		<polygon fill="none" stroke="url(#SVGID_43_)" stroke-width="0.3762" stroke-miterlimit="10" points="40.77,70.443 19.032,86.881 
			22.312,86.881 40.721,71.838 		"/>
		
			<radialGradient id="SVGID_44_" cx="198.0352" cy="-224.0654" r="6.9079" gradientTransform="matrix(1 0 0 -1 -164.2695 -143.7305)" gradientUnits="userSpaceOnUse">
			<stop  offset="0" style="stop-color:#FEF48F"/>
			<stop  offset="1" style="stop-color:#C49B2D"/>
		</radialGradient>
		<polygon fill="none" stroke="url(#SVGID_44_)" stroke-width="0.3762" stroke-miterlimit="10" points="40.639,74.057 
			27.159,86.881 30.806,86.881 40.577,75.695 		"/>
		
			<radialGradient id="SVGID_45_" cx="195.8564" cy="-223.1807" r="8.5137" gradientTransform="matrix(1 0 0 -1 -164.2695 -143.7305)" gradientUnits="userSpaceOnUse">
			<stop  offset="0" style="stop-color:#FEF48F"/>
			<stop  offset="1" style="stop-color:#C49B2D"/>
		</radialGradient>
		<polygon fill="none" stroke="url(#SVGID_45_)" stroke-width="0.3762" stroke-miterlimit="10" points="40.707,72.24 22.791,86.881 
			26.719,86.881 40.656,73.617 		"/>
		
			<radialGradient id="SVGID_46_" cx="200.0508" cy="-225.0928" r="5.3593" gradientTransform="matrix(1 0 0 -1 -164.2695 -143.7305)" gradientUnits="userSpaceOnUse">
			<stop  offset="0" style="stop-color:#FEF48F"/>
			<stop  offset="1" style="stop-color:#C49B2D"/>
		</radialGradient>
		<polygon fill="none" stroke="url(#SVGID_46_)" stroke-width="0.3762" stroke-miterlimit="10" points="40.561,76.18 31.207,86.881 
			33.549,86.881 40.514,77.412 		"/>
	</g>
	<g>
		<path fill="#CFA635" d="M22.208,97.52v4.283h1.041c0.201,0,0.358-0.016,0.474-0.045c0.115-0.029,0.229-0.104,0.341-0.219
			c0.112-0.115,0.198-0.252,0.259-0.412c0.061-0.158,0.126-0.379,0.195-0.664h0.163l-0.128,1.516h-3.897v-0.176h0.729V97.52h-0.729
			v-0.178h2.324v0.178H22.208z"/>
		<path fill="#CFA635" d="M28.923,97.52h-0.757v-0.178h1.656v0.178h-0.729v2.803c0,0.406-0.031,0.705-0.092,0.9
			c-0.061,0.191-0.172,0.354-0.333,0.486c-0.162,0.131-0.354,0.227-0.579,0.287c-0.225,0.061-0.457,0.09-0.697,0.09
			c-0.507,0-0.878-0.08-1.114-0.238c-0.235-0.158-0.379-0.355-0.434-0.588c-0.054-0.232-0.082-0.547-0.082-0.938v-2.805h-0.67
			v-0.176h2.216v0.176H26.58v2.725c0,0.375,0.017,0.67,0.052,0.885c0.035,0.217,0.128,0.395,0.28,0.537s0.393,0.213,0.723,0.213
			c0.268,0,0.507-0.055,0.719-0.164c0.212-0.107,0.36-0.256,0.444-0.439c0.084-0.186,0.126-0.527,0.126-1.029V97.52L28.923,97.52z"
			/>
		<path fill="#CFA635" d="M33.25,99.336l1.791,2.467h0.581v0.176h-2.331v-0.176h0.792l-1.331-1.836l-1.452,1.836h0.906v0.176h-1.833
			v-0.176h0.702l1.556-1.984l-1.67-2.299h-0.588v-0.178h2.31v0.178h-0.764l1.21,1.654l1.317-1.654H33.65v-0.178h1.681v0.178h-0.654
			L33.25,99.336z"/>
		<path fill="#CFA635" d="M40.062,97.52h-0.757v-0.178h1.656v0.178h-0.729v2.803c0,0.406-0.031,0.705-0.092,0.9
			c-0.061,0.191-0.172,0.354-0.333,0.486c-0.162,0.131-0.354,0.227-0.579,0.287s-0.457,0.09-0.697,0.09
			c-0.507,0-0.878-0.08-1.114-0.238c-0.235-0.158-0.379-0.355-0.434-0.588c-0.054-0.232-0.082-0.547-0.082-0.938v-2.805h-0.67
			v-0.176h2.216v0.176h-0.73v2.725c0,0.375,0.017,0.67,0.052,0.885c0.035,0.217,0.128,0.395,0.28,0.537
			c0.152,0.143,0.393,0.213,0.723,0.213c0.268,0,0.507-0.055,0.719-0.164c0.212-0.107,0.36-0.256,0.444-0.439
			c0.084-0.186,0.126-0.527,0.126-1.029L40.062,97.52L40.062,97.52z"/>
		<path fill="#CFA635" d="M42.401,101.803V97.52h-0.729v-0.178h2.542c0.332,0,0.604,0.027,0.818,0.086
			c0.213,0.059,0.397,0.178,0.551,0.357c0.154,0.182,0.231,0.391,0.231,0.625c0,0.293-0.113,0.529-0.338,0.711
			c-0.226,0.184-0.609,0.32-1.148,0.412v0.018c0.388,0.076,0.705,0.225,0.953,0.443c0.248,0.219,0.372,0.59,0.372,1.113
			c0,0.299,0.035,0.49,0.105,0.574c0.07,0.084,0.167,0.127,0.292,0.127c0.081,0,0.178-0.018,0.291-0.049v0.17
			c-0.201,0.068-0.394,0.104-0.581,0.104c-0.38,0-0.649-0.105-0.806-0.318c-0.157-0.213-0.233-0.42-0.228-0.621l0.014-0.59
			c0-0.203-0.065-0.406-0.195-0.605S44.12,99.6,43.659,99.6h-0.432v2.201h0.729v0.178h-2.282v-0.178h0.728V101.803z M43.226,97.52
			v1.918h0.622c0.268,0,0.472-0.02,0.612-0.053c0.14-0.037,0.253-0.131,0.337-0.281s0.126-0.393,0.126-0.721
			c0-0.27-0.042-0.467-0.128-0.592c-0.085-0.125-0.188-0.201-0.309-0.229c-0.121-0.029-0.28-0.043-0.476-0.043H43.226L43.226,97.52z
			"/>
		<path fill="#CFA635" d="M46.265,97.342h2.316v0.178h-0.764l1.358,2.047l1.338-2.047h-0.84v-0.178h1.643v0.178h-0.602l-1.452,2.215
			v2.068h0.771v0.176h-2.379v-0.176h0.785v-1.947l-1.556-2.336h-0.619L46.265,97.342L46.265,97.342z"/>
	</g>
	<g>
		<g>
			<path fill="#CFA635" stroke="#CFA635" stroke-width="0.1881" stroke-miterlimit="10" d="M21.031,92.506
				c0.185,0,0.359-0.033,0.524-0.104c0.164-0.068,0.307-0.164,0.428-0.285s0.216-0.264,0.286-0.43
				c0.069-0.164,0.104-0.338,0.104-0.523c0-0.184-0.035-0.357-0.104-0.521c-0.069-0.166-0.165-0.309-0.286-0.43
				s-0.264-0.217-0.428-0.285c-0.165-0.068-0.339-0.104-0.524-0.104h-1.809v-0.131h1.809c0.202,0,0.393,0.039,0.571,0.117
				c0.178,0.078,0.334,0.184,0.467,0.314c0.133,0.135,0.238,0.289,0.316,0.469c0.078,0.18,0.117,0.369,0.117,0.57
				c0,0.203-0.039,0.395-0.117,0.572c-0.078,0.178-0.183,0.334-0.316,0.467c-0.133,0.133-0.289,0.238-0.467,0.316
				c-0.179,0.078-0.369,0.117-0.571,0.117V92.506z M19.352,95.752h-0.13v-6.059h0.13V95.752z M21.456,92.498
				c0.225,0,0.436,0.043,0.632,0.129c0.196,0.088,0.368,0.203,0.515,0.352c0.147,0.146,0.264,0.318,0.351,0.516
				c0.086,0.195,0.13,0.406,0.13,0.633c0,0.225-0.043,0.438-0.13,0.637c-0.087,0.197-0.204,0.371-0.351,0.52
				c-0.147,0.146-0.319,0.262-0.515,0.346c-0.196,0.084-0.407,0.125-0.632,0.125h-2.233v-0.139h2.233
				c0.208,0,0.402-0.039,0.584-0.115c0.182-0.078,0.341-0.186,0.476-0.32c0.136-0.137,0.243-0.293,0.32-0.473
				c0.078-0.18,0.117-0.373,0.117-0.58s-0.039-0.4-0.117-0.58c-0.078-0.178-0.185-0.336-0.32-0.471
				c-0.135-0.137-0.294-0.244-0.476-0.32c-0.182-0.078-0.376-0.117-0.584-0.117V92.498z M21.463,92.637h-2.242v-0.131h2.242V92.637z
				"/>
			<path fill="#CFA635" stroke="#CFA635" stroke-width="0.1881" stroke-miterlimit="10" d="M23.761,95.752v-6.059h0.13v6.059H23.761
				z M23.761,89.822v-0.129h3.047v0.129H23.761z M23.761,92.783v-0.129h2.779v0.129H23.761z M23.761,95.752v-0.129h3.047v0.129
				H23.761z"/>
			<path fill="#CFA635" stroke="#CFA635" stroke-width="0.1881" stroke-miterlimit="10" d="M27.345,95.752v-6.059h0.13v6.059H27.345
				z M27.345,95.752v-0.129h3.047v0.129H27.345z"/>
			<path fill="#CFA635" stroke="#CFA635" stroke-width="0.1881" stroke-miterlimit="10" d="M33.057,95.752
				c-0.381,0-0.74-0.078-1.078-0.236s-0.632-0.375-0.883-0.65c-0.251-0.271-0.45-0.596-0.597-0.965s-0.221-0.762-0.221-1.176
				c0-0.416,0.074-0.811,0.221-1.18c0.147-0.367,0.346-0.689,0.597-0.965c0.251-0.273,0.545-0.488,0.883-0.648
				c0.337-0.158,0.697-0.238,1.078-0.238c0.427,0,0.833,0.102,1.22,0.305c0.185,0.098,0.365,0.229,0.541,0.395
				c0.176,0.164,0.331,0.336,0.463,0.514h-0.164c-0.254-0.352-0.557-0.621-0.909-0.809s-0.735-0.281-1.151-0.281
				c-0.364,0-0.707,0.076-1.03,0.229c-0.323,0.152-0.604,0.361-0.844,0.623c-0.24,0.264-0.429,0.57-0.567,0.928
				c-0.138,0.354-0.208,0.73-0.208,1.129c0,0.396,0.069,0.773,0.208,1.129c0.139,0.355,0.328,0.664,0.567,0.928
				c0.239,0.262,0.521,0.471,0.844,0.623c0.323,0.152,0.667,0.229,1.03,0.229c0.416,0,0.808-0.104,1.177-0.309
				c0.369-0.203,0.681-0.482,0.935-0.834l0.113,0.051c-0.133,0.18-0.287,0.352-0.463,0.516c-0.176,0.166-0.356,0.297-0.541,0.395
				C33.908,95.652,33.5,95.752,33.057,95.752z M33.438,93.285v-0.129h1.844v0.129H33.438z M35.151,93.156h0.13v2.588h-0.13V93.156z"
				/>
			<path fill="#CFA635" stroke="#CFA635" stroke-width="0.1881" stroke-miterlimit="10" d="M36.099,92.637v-0.131h1.809
				c0.185,0,0.359-0.033,0.524-0.104c0.164-0.068,0.307-0.164,0.428-0.285c0.121-0.121,0.216-0.264,0.286-0.43
				c0.069-0.164,0.104-0.338,0.104-0.523c0-0.184-0.035-0.357-0.104-0.521c-0.069-0.166-0.165-0.309-0.286-0.43
				c-0.121-0.121-0.264-0.217-0.428-0.285c-0.165-0.068-0.339-0.104-0.524-0.104h-1.809v-0.131h1.809
				c0.202,0,0.393,0.039,0.571,0.117s0.334,0.184,0.467,0.314c0.133,0.135,0.238,0.289,0.316,0.469
				c0.078,0.18,0.117,0.369,0.117,0.57c0,0.203-0.039,0.395-0.117,0.572c-0.078,0.178-0.183,0.334-0.316,0.467
				c-0.133,0.133-0.289,0.238-0.467,0.316c-0.179,0.078-0.369,0.117-0.571,0.117H36.099L36.099,92.637z M36.229,95.752h-0.13v-6.059
				h0.13V95.752z M39.431,95.752l-1.653-3.143l0.121-0.068l1.662,3.211H39.431z"/>
			<path fill="#CFA635" stroke="#CFA635" stroke-width="0.1881" stroke-miterlimit="10" d="M44.876,95.752h-0.13l-2.25-5.877
				l-2.25,5.877h-0.13l2.311-6.059h0.139L44.876,95.752z M40.957,93.744v-0.129h3.073v0.129H40.957z"/>
			<path fill="#CFA635" stroke="#CFA635" stroke-width="0.1881" stroke-miterlimit="10" d="M47.203,89.822h-1.792l-0.017-0.129
				h1.809V89.822z M45.411,89.693h0.13v6.059h-0.13V89.693z M47.21,95.752h-1.8v-0.129h1.8V95.752z M47.193,95.623
				c0.363,0,0.707-0.076,1.03-0.229c0.323-0.152,0.604-0.361,0.844-0.623c0.239-0.264,0.43-0.57,0.571-0.922
				c0.141-0.354,0.212-0.729,0.212-1.125c0-0.398-0.069-0.773-0.208-1.127c-0.139-0.352-0.329-0.658-0.571-0.922
				c-0.243-0.262-0.525-0.471-0.848-0.623c-0.324-0.152-0.667-0.229-1.03-0.229v-0.131c0.369,0,0.721,0.078,1.056,0.229
				c0.334,0.154,0.629,0.363,0.883,0.633c0.254,0.27,0.457,0.59,0.61,0.961c0.153,0.373,0.229,0.773,0.229,1.209
				c0,0.375-0.064,0.742-0.19,1.104c-0.127,0.359-0.311,0.684-0.55,0.969c-0.24,0.285-0.531,0.518-0.875,0.693
				c-0.343,0.176-0.731,0.264-1.164,0.264L47.193,95.623L47.193,95.623z"/>
			<path fill="#CFA635" stroke="#CFA635" stroke-width="0.1881" stroke-miterlimit="10" d="M50.685,95.752v-6.059h0.13v6.059H50.685
				z M50.685,89.822v-0.129h3.047v0.129H50.685z M50.685,92.783v-0.129h2.779v0.129H50.685z M50.685,95.752v-0.129h3.047v0.129
				H50.685z"/>
		</g>
	</g>
</g>
<g>
	<g>
		<path fill="#CFA635" stroke="#CFA635" stroke-width="0.3904" stroke-miterlimit="10" d="M8.876,22.422v-5.6h0.12v5.6H8.876z
			 M8.876,22.422v-0.12h2.816v0.12H8.876z"/>
		<path fill="#CFA635" stroke="#CFA635" stroke-width="0.3904" stroke-miterlimit="10" d="M12.042,20.918h-0.12v-4.096h0.12V20.918z
			 M14.931,20.918c0,0.208-0.04,0.403-0.12,0.584s-0.188,0.341-0.324,0.48c-0.136,0.139-0.295,0.248-0.476,0.328
			c-0.181,0.08-0.376,0.12-0.584,0.12s-0.403-0.04-0.584-0.12c-0.181-0.08-0.34-0.189-0.476-0.328
			c-0.136-0.139-0.244-0.299-0.324-0.48s-0.12-0.376-0.12-0.584h0.12c0,0.192,0.036,0.372,0.108,0.54
			c0.072,0.168,0.17,0.316,0.296,0.444c0.126,0.128,0.272,0.228,0.44,0.3c0.168,0.072,0.348,0.108,0.54,0.108
			c0.192,0,0.372-0.036,0.54-0.108c0.168-0.072,0.314-0.172,0.44-0.3c0.126-0.128,0.224-0.276,0.296-0.444
			c0.072-0.168,0.108-0.348,0.108-0.54H14.931z M14.931,20.918h-0.12v-4.096h0.12V20.918z"/>
		<path fill="#CFA635" stroke="#CFA635" stroke-width="0.3904" stroke-miterlimit="10" d="M15.448,16.822h0.136l2.872,5.6h-0.136
			L15.448,16.822z M15.583,22.422h-0.136l2.872-5.6h0.136L15.583,22.422z"/>
		<path fill="#CFA635" stroke="#CFA635" stroke-width="0.3904" stroke-miterlimit="10" d="M19.092,20.918h-0.12v-4.096h0.12V20.918z
			 M21.979,20.918c0,0.208-0.04,0.403-0.12,0.584s-0.188,0.341-0.324,0.48c-0.136,0.139-0.295,0.248-0.476,0.328
			s-0.376,0.12-0.584,0.12s-0.403-0.04-0.584-0.12s-0.34-0.189-0.476-0.328c-0.136-0.139-0.244-0.299-0.324-0.48
			c-0.08-0.181-0.12-0.376-0.12-0.584h0.12c0,0.192,0.036,0.372,0.108,0.54c0.072,0.168,0.17,0.316,0.296,0.444
			c0.126,0.128,0.272,0.228,0.44,0.3c0.168,0.072,0.348,0.108,0.54,0.108s0.372-0.036,0.54-0.108c0.168-0.072,0.314-0.172,0.44-0.3
			c0.126-0.128,0.224-0.276,0.296-0.444c0.072-0.168,0.108-0.348,0.108-0.54H21.979z M21.979,20.918h-0.12v-4.096h0.12V20.918z"/>
		<path fill="#CFA635" stroke="#CFA635" stroke-width="0.3904" stroke-miterlimit="10" d="M22.805,19.542v-0.12h1.672
			c0.171,0,0.332-0.032,0.484-0.096s0.284-0.152,0.396-0.264c0.112-0.112,0.2-0.244,0.264-0.396s0.096-0.313,0.096-0.484
			c0-0.17-0.032-0.332-0.096-0.484c-0.064-0.152-0.152-0.284-0.264-0.396c-0.112-0.112-0.244-0.2-0.396-0.264
			s-0.313-0.096-0.484-0.096h-1.672v-0.12h1.672c0.187,0,0.363,0.036,0.528,0.108c0.165,0.072,0.309,0.169,0.432,0.292
			s0.22,0.267,0.292,0.432c0.072,0.166,0.108,0.341,0.108,0.528s-0.036,0.363-0.108,0.528c-0.072,0.166-0.169,0.309-0.292,0.432
			s-0.267,0.22-0.432,0.292c-0.166,0.072-0.342,0.108-0.528,0.108H22.805z M22.924,22.422h-0.12v-5.6h0.12V22.422z M25.884,22.422
			l-1.528-2.904l0.112-0.064l1.536,2.968H25.884z"/>
		<path fill="#CFA635" stroke="#CFA635" stroke-width="0.3904" stroke-miterlimit="10" d="M27.832,19.862h-0.12l-1.448-3.04h0.136
			l1.368,2.888l1.36-2.888h0.144L27.832,19.862z M27.711,22.422V19.83h0.12v2.592H27.711z"/>
		<path fill="#CFA635" stroke="#CFA635" stroke-width="0.3904" stroke-miterlimit="10" d="M31.687,19.542l0.12-0.12h1.552
			c0.171,0,0.332-0.032,0.484-0.096c0.152-0.064,0.284-0.152,0.396-0.264c0.112-0.112,0.2-0.244,0.264-0.396
			s0.096-0.313,0.096-0.484c0-0.17-0.032-0.332-0.096-0.484c-0.064-0.152-0.152-0.284-0.264-0.396
			c-0.112-0.112-0.244-0.2-0.396-0.264c-0.152-0.064-0.313-0.096-0.484-0.096h-1.672v-0.12h1.672c0.187,0,0.363,0.036,0.528,0.108
			c0.165,0.072,0.309,0.169,0.432,0.292s0.22,0.267,0.292,0.432c0.072,0.166,0.108,0.341,0.108,0.528s-0.036,0.363-0.108,0.528
			c-0.072,0.166-0.169,0.309-0.292,0.432s-0.267,0.22-0.432,0.292c-0.166,0.072-0.342,0.108-0.528,0.108H31.687z M31.808,22.422
			h-0.12v-5.6h0.12V22.422z"/>
		<path fill="#CFA635" stroke="#CFA635" stroke-width="0.3904" stroke-miterlimit="10" d="M38.975,22.422h-0.12l-2.08-5.432
			l-2.08,5.432h-0.12l2.136-5.6h0.128L38.975,22.422z M35.351,20.566v-0.12h2.84v0.12H35.351z"/>
		<path fill="#CFA635" stroke="#CFA635" stroke-width="0.3904" stroke-miterlimit="10" d="M41.711,22.422
			c-0.352,0-0.684-0.073-0.996-0.22c-0.312-0.146-0.584-0.346-0.816-0.6s-0.416-0.551-0.552-0.892
			c-0.136-0.341-0.204-0.704-0.204-1.088s0.068-0.747,0.204-1.088c0.136-0.341,0.32-0.639,0.552-0.892s0.504-0.454,0.816-0.6
			c0.312-0.147,0.644-0.22,0.996-0.22c0.395,0,0.771,0.093,1.128,0.28c0.171,0.09,0.337,0.212,0.5,0.364
			c0.163,0.152,0.306,0.311,0.428,0.476h-0.152c-0.235-0.325-0.515-0.575-0.84-0.748c-0.325-0.173-0.68-0.26-1.064-0.26
			c-0.336,0-0.653,0.07-0.952,0.212c-0.299,0.141-0.559,0.333-0.78,0.576c-0.221,0.243-0.396,0.528-0.524,0.856
			s-0.192,0.676-0.192,1.044s0.064,0.716,0.192,1.044s0.303,0.613,0.524,0.856s0.481,0.435,0.78,0.576
			c0.298,0.142,0.616,0.212,0.952,0.212c0.384,0,0.739-0.087,1.064-0.26c0.325-0.173,0.605-0.422,0.84-0.748h0.152
			c-0.123,0.166-0.266,0.324-0.428,0.476c-0.162,0.152-0.329,0.273-0.5,0.364C42.499,22.329,42.123,22.422,41.711,22.422z"/>
		<path fill="#CFA635" stroke="#CFA635" stroke-width="0.3904" stroke-miterlimit="10" d="M44.342,22.422v-5.6h0.12v5.6H44.342z
			 M44.358,19.87l2.832-3.048h0.16l-2.912,3.128L44.358,19.87z M45.214,19.006l0.096-0.064l2.04,3.48h-0.136L45.214,19.006z"/>
		<path fill="#CFA635" stroke="#CFA635" stroke-width="0.3904" stroke-miterlimit="10" d="M52.268,22.422h-0.12l-2.08-5.432
			l-2.08,5.432h-0.12l2.136-5.6h0.128L52.268,22.422z M48.644,20.566v-0.12h2.84v0.12H48.644z"/>
		<path fill="#CFA635" stroke="#CFA635" stroke-width="0.3904" stroke-miterlimit="10" d="M55.003,22.422
			c-0.352,0-0.684-0.073-0.996-0.22c-0.312-0.146-0.584-0.346-0.816-0.6s-0.416-0.551-0.552-0.892
			c-0.136-0.341-0.204-0.704-0.204-1.088s0.068-0.747,0.204-1.088c0.136-0.341,0.32-0.639,0.552-0.892s0.504-0.454,0.816-0.6
			c0.312-0.147,0.644-0.22,0.996-0.22c0.395,0,0.771,0.093,1.128,0.28c0.171,0.09,0.337,0.212,0.5,0.364
			c0.163,0.152,0.306,0.311,0.428,0.476h-0.152c-0.235-0.325-0.515-0.575-0.84-0.748c-0.325-0.173-0.68-0.26-1.064-0.26
			c-0.336,0-0.653,0.07-0.952,0.212c-0.299,0.141-0.559,0.333-0.78,0.576c-0.221,0.243-0.396,0.528-0.524,0.856
			s-0.192,0.676-0.192,1.044s0.064,0.716,0.192,1.044s0.303,0.613,0.524,0.856s0.481,0.435,0.78,0.576
			c0.298,0.142,0.616,0.212,0.952,0.212c0.384,0,0.747-0.095,1.088-0.284c0.341-0.189,0.629-0.447,0.864-0.772l0.104,0.048
			c-0.123,0.166-0.266,0.324-0.428,0.476c-0.162,0.152-0.329,0.273-0.5,0.364C55.791,22.329,55.415,22.422,55.003,22.422z
			 M55.355,20.142v-0.12h1.704v0.12H55.355z M56.939,20.022h0.12v2.392h-0.12V20.022z"/>
		<path fill="#CFA635" stroke="#CFA635" stroke-width="0.3904" stroke-miterlimit="10" d="M57.833,22.422v-5.6h0.12v5.6H57.833z
			 M57.833,16.942v-0.12h2.815v0.12H57.833z M57.833,19.678v-0.12h2.567v0.12H57.833z M57.833,22.422v-0.12h2.815v0.12H57.833z"/>
	</g>
</g>
<line fill="none" stroke="#CFA635" stroke-width="0.5" stroke-miterlimit="10" x1="0.12" y1="24.701" x2="103.926" y2="24.701"/>
<g>
</g>
<g>
</g>
<g>
</g>
<g>
</g>
<g>
</g>
<g>
</g>
</svg>
